%TF.GenerationSoftware,KiCad,Pcbnew,9.0.7*%
%TF.CreationDate,2026-02-02T22:52:16-08:00*%
%TF.ProjectId,TECHIN514 System Architecture Graph Lewis Liu,54454348-494e-4353-9134-205379737465,rev?*%
%TF.SameCoordinates,Original*%
%TF.FileFunction,Copper,L2,Bot*%
%TF.FilePolarity,Positive*%
%FSLAX46Y46*%
G04 Gerber Fmt 4.6, Leading zero omitted, Abs format (unit mm)*
G04 Created by KiCad (PCBNEW 9.0.7) date 2026-02-02 22:52:16*
%MOMM*%
%LPD*%
G01*
G04 APERTURE LIST*
%TA.AperFunction,ComponentPad*%
%ADD10O,2.000000X1.600000*%
%TD*%
%TA.AperFunction,ComponentPad*%
%ADD11C,1.700000*%
%TD*%
%TA.AperFunction,ComponentPad*%
%ADD12R,1.700000X1.700000*%
%TD*%
%TA.AperFunction,ComponentPad*%
%ADD13O,1.778000X3.556000*%
%TD*%
%TA.AperFunction,ComponentPad*%
%ADD14C,1.905000*%
%TD*%
G04 APERTURE END LIST*
D10*
%TO.P,Brd1,1,GND*%
%TO.N,GND*%
X133400000Y-62880000D03*
%TO.P,Brd1,2,VCC*%
%TO.N,+3.3V*%
X133400000Y-65420000D03*
%TO.P,Brd1,3,SCL*%
%TO.N,Net-(Brd1-SCL)*%
X133400000Y-67960000D03*
%TO.P,Brd1,4,SDA*%
%TO.N,Net-(Brd1-SDA)*%
X133400000Y-70500000D03*
%TD*%
D11*
%TO.P,M1,1*%
%TO.N,Net-(U4-GPIO2_A1_D1)*%
X117500000Y-57500000D03*
%TO.P,M1,2,-*%
%TO.N,Net-(M1--)*%
X109880000Y-57500000D03*
%TO.P,M1,3*%
%TO.N,Net-(U4-GPIO3_A2_D2)*%
X109880000Y-80360000D03*
%TO.P,M1,4*%
%TO.N,Net-(U4-GPIO4_A3_D3)*%
X117500000Y-80360000D03*
%TD*%
D12*
%TO.P,BT1,1,+*%
%TO.N,/BAT*%
X148975000Y-88025000D03*
D11*
%TO.P,BT1,2,-*%
%TO.N,GND*%
X151515000Y-88025000D03*
%TD*%
D12*
%TO.P,SW2,1,1*%
%TO.N,Net-(U4-GPIO7_A8_D8_SCK)*%
X123975000Y-93000000D03*
D11*
%TO.P,SW2,2,2*%
%TO.N,+3.3V*%
X123975000Y-95540000D03*
%TD*%
D12*
%TO.P,SW1,1,1*%
%TO.N,Net-(U4-GPIO9_A10_D10_COPI)*%
X130000000Y-93000000D03*
D11*
%TO.P,SW1,2,2*%
%TO.N,+3.3V*%
X130000000Y-95540000D03*
%TD*%
D12*
%TO.P,SW3,1,1*%
%TO.N,Net-(U4-GPIO8_A9_D9_CIPO)*%
X117975000Y-93000000D03*
D11*
%TO.P,SW3,2,2*%
%TO.N,+3.3V*%
X117975000Y-95540000D03*
%TD*%
D13*
%TO.P,U4,1,GPIO1_A0_D0*%
%TO.N,Net-(M1--)*%
X83800000Y-83118000D03*
%TO.P,U4,2,GPIO2_A1_D1*%
%TO.N,Net-(U4-GPIO2_A1_D1)*%
X86340000Y-83118000D03*
%TO.P,U4,3,GPIO3_A2_D2*%
%TO.N,Net-(U4-GPIO3_A2_D2)*%
X88880000Y-83118000D03*
%TO.P,U4,4,GPIO4_A3_D3*%
%TO.N,Net-(U4-GPIO4_A3_D3)*%
X91420000Y-83118000D03*
%TO.P,U4,5,GPIO4_A3_D3_SDA*%
%TO.N,Net-(Brd1-SDA)*%
X93960000Y-83118000D03*
%TO.P,U4,6,GPIO6_A5_D5_SCL*%
%TO.N,Net-(Brd1-SCL)*%
X96500000Y-83118000D03*
%TO.P,U4,7,GPIO43_TX_D6*%
%TO.N,Net-(D1-DIN)*%
X99040000Y-83118000D03*
%TO.P,U4,8,GPIO44_D7_RX*%
%TO.N,unconnected-(U4-GPIO44_D7_RX-Pad8)*%
X99040000Y-99882000D03*
%TO.P,U4,9,GPIO7_A8_D8_SCK*%
%TO.N,Net-(U4-GPIO7_A8_D8_SCK)*%
X96500000Y-99882000D03*
%TO.P,U4,10,GPIO8_A9_D9_CIPO*%
%TO.N,Net-(U4-GPIO8_A9_D9_CIPO)*%
X93960000Y-99882000D03*
%TO.P,U4,11,GPIO9_A10_D10_COPI*%
%TO.N,Net-(U4-GPIO9_A10_D10_COPI)*%
X91420000Y-99882000D03*
%TO.P,U4,12,3V3*%
%TO.N,+3.3V*%
X88880000Y-99882000D03*
%TO.P,U4,13,GND*%
%TO.N,GND*%
X86340000Y-99882000D03*
%TO.P,U4,14,5V*%
%TO.N,/VCC*%
X83800000Y-99882000D03*
D14*
%TO.P,U4,15,+BATT*%
%TO.N,unconnected-(U4-+BATT-Pad15)*%
X109200000Y-88960000D03*
%TO.P,U4,16,-BATT*%
%TO.N,unconnected-(U4--BATT-Pad16)*%
X109200000Y-94040000D03*
%TD*%
D12*
%TO.P,SW4,1,A*%
%TO.N,unconnected-(SW4-A-Pad1)*%
X147975000Y-93525000D03*
D11*
%TO.P,SW4,2,B*%
%TO.N,/BAT*%
X150515000Y-93525000D03*
%TO.P,SW4,3,C*%
%TO.N,/VCC*%
X153055000Y-93525000D03*
%TD*%
D12*
%TO.P,D1,1,DOUT*%
%TO.N,unconnected-(D1-DOUT-Pad1)*%
X138500000Y-96540000D03*
D11*
%TO.P,D1,2,GND*%
%TO.N,GND*%
X138500000Y-94000000D03*
%TO.P,D1,3,VDD*%
%TO.N,+3.3V*%
X138500000Y-91460000D03*
%TO.P,D1,4,DIN*%
%TO.N,Net-(D1-DIN)*%
X138500000Y-88920000D03*
%TD*%
%TA.AperFunction,Conductor*%
%TO.N,GND*%
G36*
X162006922Y-52001280D02*
G01*
X162097266Y-52011459D01*
X162124331Y-52017636D01*
X162203540Y-52045352D01*
X162228553Y-52057398D01*
X162299606Y-52102043D01*
X162321313Y-52119355D01*
X162380644Y-52178686D01*
X162397957Y-52200395D01*
X162442600Y-52271444D01*
X162454648Y-52296462D01*
X162482362Y-52375666D01*
X162488540Y-52402735D01*
X162498720Y-52493076D01*
X162499500Y-52506961D01*
X162499500Y-103993038D01*
X162498720Y-104006922D01*
X162498720Y-104006923D01*
X162488540Y-104097264D01*
X162482362Y-104124333D01*
X162454648Y-104203537D01*
X162442600Y-104228555D01*
X162397957Y-104299604D01*
X162380644Y-104321313D01*
X162321313Y-104380644D01*
X162299604Y-104397957D01*
X162228555Y-104442600D01*
X162203537Y-104454648D01*
X162124333Y-104482362D01*
X162097264Y-104488540D01*
X162017075Y-104497576D01*
X162006921Y-104498720D01*
X161993038Y-104499500D01*
X81006962Y-104499500D01*
X80993078Y-104498720D01*
X80980553Y-104497308D01*
X80902735Y-104488540D01*
X80875666Y-104482362D01*
X80796462Y-104454648D01*
X80771444Y-104442600D01*
X80700395Y-104397957D01*
X80678686Y-104380644D01*
X80619355Y-104321313D01*
X80602042Y-104299604D01*
X80557399Y-104228555D01*
X80545351Y-104203537D01*
X80517637Y-104124333D01*
X80511459Y-104097263D01*
X80501280Y-104006922D01*
X80500500Y-103993038D01*
X80500500Y-98883638D01*
X82410500Y-98883638D01*
X82410500Y-100880361D01*
X82444714Y-101096376D01*
X82512297Y-101304380D01*
X82512298Y-101304383D01*
X82579782Y-101436825D01*
X82599722Y-101475960D01*
X82611595Y-101499260D01*
X82740142Y-101676193D01*
X82894806Y-101830857D01*
X83060374Y-101951147D01*
X83071743Y-101959407D01*
X83199132Y-102024315D01*
X83266616Y-102058701D01*
X83266619Y-102058702D01*
X83370621Y-102092493D01*
X83474625Y-102126286D01*
X83574672Y-102142132D01*
X83690639Y-102160500D01*
X83690644Y-102160500D01*
X83909361Y-102160500D01*
X84014082Y-102143912D01*
X84125375Y-102126286D01*
X84333383Y-102058701D01*
X84528257Y-101959407D01*
X84627601Y-101887229D01*
X84705193Y-101830857D01*
X84705195Y-101830854D01*
X84705199Y-101830852D01*
X84859852Y-101676199D01*
X84969991Y-101524603D01*
X85025320Y-101481939D01*
X85094933Y-101475960D01*
X85156729Y-101508565D01*
X85170627Y-101524605D01*
X85280524Y-101675866D01*
X85280528Y-101675871D01*
X85435128Y-101830471D01*
X85435133Y-101830475D01*
X85612001Y-101958976D01*
X85806808Y-102058237D01*
X85806811Y-102058238D01*
X86014739Y-102125797D01*
X86089999Y-102137717D01*
X86090000Y-102137717D01*
X86090000Y-99562251D01*
X86143919Y-99593381D01*
X86273120Y-99628000D01*
X86406880Y-99628000D01*
X86536081Y-99593381D01*
X86590000Y-99562251D01*
X86590000Y-102137717D01*
X86665258Y-102125797D01*
X86665261Y-102125797D01*
X86873188Y-102058238D01*
X86873191Y-102058237D01*
X87067998Y-101958976D01*
X87244866Y-101830475D01*
X87244871Y-101830471D01*
X87399469Y-101675873D01*
X87509371Y-101524605D01*
X87564701Y-101481939D01*
X87634314Y-101475960D01*
X87696110Y-101508565D01*
X87710008Y-101524605D01*
X87820142Y-101676192D01*
X87820146Y-101676197D01*
X87974806Y-101830857D01*
X88140374Y-101951147D01*
X88151743Y-101959407D01*
X88279132Y-102024315D01*
X88346616Y-102058701D01*
X88346619Y-102058702D01*
X88450621Y-102092493D01*
X88554625Y-102126286D01*
X88654672Y-102142132D01*
X88770639Y-102160500D01*
X88770644Y-102160500D01*
X88989361Y-102160500D01*
X89094082Y-102143912D01*
X89205375Y-102126286D01*
X89413383Y-102058701D01*
X89608257Y-101959407D01*
X89707601Y-101887229D01*
X89785193Y-101830857D01*
X89785195Y-101830854D01*
X89785199Y-101830852D01*
X89939852Y-101676199D01*
X90049683Y-101525028D01*
X90105011Y-101482364D01*
X90174624Y-101476385D01*
X90236420Y-101508990D01*
X90250313Y-101525023D01*
X90359906Y-101675866D01*
X90360148Y-101676199D01*
X90514806Y-101830857D01*
X90680374Y-101951147D01*
X90691743Y-101959407D01*
X90819132Y-102024315D01*
X90886616Y-102058701D01*
X90886619Y-102058702D01*
X90990621Y-102092493D01*
X91094625Y-102126286D01*
X91194672Y-102142132D01*
X91310639Y-102160500D01*
X91310644Y-102160500D01*
X91529361Y-102160500D01*
X91634082Y-102143912D01*
X91745375Y-102126286D01*
X91953383Y-102058701D01*
X92148257Y-101959407D01*
X92247601Y-101887229D01*
X92325193Y-101830857D01*
X92325195Y-101830854D01*
X92325199Y-101830852D01*
X92479852Y-101676199D01*
X92589683Y-101525028D01*
X92645011Y-101482364D01*
X92714624Y-101476385D01*
X92776420Y-101508990D01*
X92790313Y-101525023D01*
X92899906Y-101675866D01*
X92900148Y-101676199D01*
X93054806Y-101830857D01*
X93220374Y-101951147D01*
X93231743Y-101959407D01*
X93359132Y-102024315D01*
X93426616Y-102058701D01*
X93426619Y-102058702D01*
X93530621Y-102092493D01*
X93634625Y-102126286D01*
X93734672Y-102142132D01*
X93850639Y-102160500D01*
X93850644Y-102160500D01*
X94069361Y-102160500D01*
X94174082Y-102143912D01*
X94285375Y-102126286D01*
X94493383Y-102058701D01*
X94688257Y-101959407D01*
X94787601Y-101887229D01*
X94865193Y-101830857D01*
X94865195Y-101830854D01*
X94865199Y-101830852D01*
X95019852Y-101676199D01*
X95129683Y-101525028D01*
X95185011Y-101482364D01*
X95254624Y-101476385D01*
X95316420Y-101508990D01*
X95330313Y-101525023D01*
X95439906Y-101675866D01*
X95440148Y-101676199D01*
X95594806Y-101830857D01*
X95760374Y-101951147D01*
X95771743Y-101959407D01*
X95899132Y-102024315D01*
X95966616Y-102058701D01*
X95966619Y-102058702D01*
X96070621Y-102092493D01*
X96174625Y-102126286D01*
X96274672Y-102142132D01*
X96390639Y-102160500D01*
X96390644Y-102160500D01*
X96609361Y-102160500D01*
X96714082Y-102143912D01*
X96825375Y-102126286D01*
X97033383Y-102058701D01*
X97228257Y-101959407D01*
X97327601Y-101887229D01*
X97405193Y-101830857D01*
X97405195Y-101830854D01*
X97405199Y-101830852D01*
X97559852Y-101676199D01*
X97669683Y-101525028D01*
X97725011Y-101482364D01*
X97794624Y-101476385D01*
X97856420Y-101508990D01*
X97870313Y-101525023D01*
X97979906Y-101675866D01*
X97980148Y-101676199D01*
X98134806Y-101830857D01*
X98300374Y-101951147D01*
X98311743Y-101959407D01*
X98439132Y-102024315D01*
X98506616Y-102058701D01*
X98506619Y-102058702D01*
X98610621Y-102092493D01*
X98714625Y-102126286D01*
X98814672Y-102142132D01*
X98930639Y-102160500D01*
X98930644Y-102160500D01*
X99149361Y-102160500D01*
X99254082Y-102143912D01*
X99365375Y-102126286D01*
X99573383Y-102058701D01*
X99768257Y-101959407D01*
X99867601Y-101887229D01*
X99945193Y-101830857D01*
X99945195Y-101830854D01*
X99945199Y-101830852D01*
X100099852Y-101676199D01*
X100099854Y-101676195D01*
X100099857Y-101676193D01*
X100156229Y-101598601D01*
X100228407Y-101499257D01*
X100327701Y-101304383D01*
X100395286Y-101096375D01*
X100412912Y-100985082D01*
X100429500Y-100880361D01*
X100429500Y-98883638D01*
X100409595Y-98757971D01*
X100395286Y-98667625D01*
X100327701Y-98459617D01*
X100327701Y-98459616D01*
X100293315Y-98392132D01*
X100228407Y-98264743D01*
X100209681Y-98238969D01*
X100099857Y-98087806D01*
X99945193Y-97933142D01*
X99768260Y-97804595D01*
X99768259Y-97804594D01*
X99768257Y-97804593D01*
X99656299Y-97747547D01*
X99573383Y-97705298D01*
X99573380Y-97705297D01*
X99365376Y-97637714D01*
X99149361Y-97603500D01*
X99149356Y-97603500D01*
X98930644Y-97603500D01*
X98930639Y-97603500D01*
X98714623Y-97637714D01*
X98506619Y-97705297D01*
X98506616Y-97705298D01*
X98311739Y-97804595D01*
X98134806Y-97933142D01*
X97980142Y-98087806D01*
X97870318Y-98238969D01*
X97814989Y-98281635D01*
X97745375Y-98287614D01*
X97683580Y-98255009D01*
X97669682Y-98238969D01*
X97559857Y-98087806D01*
X97405193Y-97933142D01*
X97228260Y-97804595D01*
X97228259Y-97804594D01*
X97228257Y-97804593D01*
X97116299Y-97747547D01*
X97033383Y-97705298D01*
X97033380Y-97705297D01*
X96825376Y-97637714D01*
X96609361Y-97603500D01*
X96609356Y-97603500D01*
X96390644Y-97603500D01*
X96390639Y-97603500D01*
X96174623Y-97637714D01*
X95966619Y-97705297D01*
X95966616Y-97705298D01*
X95771739Y-97804595D01*
X95594806Y-97933142D01*
X95440142Y-98087806D01*
X95330318Y-98238969D01*
X95274989Y-98281635D01*
X95205375Y-98287614D01*
X95143580Y-98255009D01*
X95129682Y-98238969D01*
X95019857Y-98087806D01*
X94865193Y-97933142D01*
X94688260Y-97804595D01*
X94688259Y-97804594D01*
X94688257Y-97804593D01*
X94576299Y-97747547D01*
X94493383Y-97705298D01*
X94493380Y-97705297D01*
X94285376Y-97637714D01*
X94069361Y-97603500D01*
X94069356Y-97603500D01*
X93850644Y-97603500D01*
X93850639Y-97603500D01*
X93634623Y-97637714D01*
X93426619Y-97705297D01*
X93426616Y-97705298D01*
X93231739Y-97804595D01*
X93054806Y-97933142D01*
X92900142Y-98087806D01*
X92790318Y-98238969D01*
X92734989Y-98281635D01*
X92665375Y-98287614D01*
X92603580Y-98255009D01*
X92589682Y-98238969D01*
X92479857Y-98087806D01*
X92325193Y-97933142D01*
X92148260Y-97804595D01*
X92148259Y-97804594D01*
X92148257Y-97804593D01*
X92036299Y-97747547D01*
X91953383Y-97705298D01*
X91953380Y-97705297D01*
X91745376Y-97637714D01*
X91529361Y-97603500D01*
X91529356Y-97603500D01*
X91310644Y-97603500D01*
X91310639Y-97603500D01*
X91094623Y-97637714D01*
X90886619Y-97705297D01*
X90886616Y-97705298D01*
X90691739Y-97804595D01*
X90514806Y-97933142D01*
X90360142Y-98087806D01*
X90250318Y-98238969D01*
X90194989Y-98281635D01*
X90125375Y-98287614D01*
X90063580Y-98255009D01*
X90049682Y-98238969D01*
X89939857Y-98087806D01*
X89785193Y-97933142D01*
X89608260Y-97804595D01*
X89608259Y-97804594D01*
X89608257Y-97804593D01*
X89496299Y-97747547D01*
X89413383Y-97705298D01*
X89413380Y-97705297D01*
X89205376Y-97637714D01*
X88989361Y-97603500D01*
X88989356Y-97603500D01*
X88770644Y-97603500D01*
X88770639Y-97603500D01*
X88554623Y-97637714D01*
X88346619Y-97705297D01*
X88346616Y-97705298D01*
X88151739Y-97804595D01*
X87974806Y-97933142D01*
X87820146Y-98087802D01*
X87820142Y-98087807D01*
X87710008Y-98239394D01*
X87654678Y-98282060D01*
X87585065Y-98288039D01*
X87523270Y-98255433D01*
X87509372Y-98239394D01*
X87399475Y-98088133D01*
X87399471Y-98088128D01*
X87244871Y-97933528D01*
X87244866Y-97933524D01*
X87067998Y-97805023D01*
X86873191Y-97705762D01*
X86873188Y-97705761D01*
X86665258Y-97638201D01*
X86590000Y-97626281D01*
X86590000Y-98677748D01*
X86536081Y-98646619D01*
X86406880Y-98612000D01*
X86273120Y-98612000D01*
X86143919Y-98646619D01*
X86090000Y-98677748D01*
X86090000Y-97626281D01*
X86014741Y-97638201D01*
X85806811Y-97705761D01*
X85806808Y-97705762D01*
X85612001Y-97805023D01*
X85435133Y-97933524D01*
X85435128Y-97933528D01*
X85280528Y-98088128D01*
X85280524Y-98088133D01*
X85170627Y-98239394D01*
X85115297Y-98282060D01*
X85045684Y-98288039D01*
X84983889Y-98255433D01*
X84969991Y-98239394D01*
X84859857Y-98087807D01*
X84859853Y-98087802D01*
X84705193Y-97933142D01*
X84528260Y-97804595D01*
X84528259Y-97804594D01*
X84528257Y-97804593D01*
X84416299Y-97747547D01*
X84333383Y-97705298D01*
X84333380Y-97705297D01*
X84125376Y-97637714D01*
X83909361Y-97603500D01*
X83909356Y-97603500D01*
X83690644Y-97603500D01*
X83690639Y-97603500D01*
X83474623Y-97637714D01*
X83266619Y-97705297D01*
X83266616Y-97705298D01*
X83071739Y-97804595D01*
X82894806Y-97933142D01*
X82740142Y-98087806D01*
X82611595Y-98264739D01*
X82512298Y-98459616D01*
X82512297Y-98459619D01*
X82444714Y-98667623D01*
X82410500Y-98883638D01*
X80500500Y-98883638D01*
X80500500Y-93925646D01*
X107747000Y-93925646D01*
X107747000Y-94154354D01*
X107753120Y-94192993D01*
X107782778Y-94380246D01*
X107782778Y-94380249D01*
X107853450Y-94597755D01*
X107957283Y-94801538D01*
X108091714Y-94986566D01*
X108253434Y-95148286D01*
X108438462Y-95282717D01*
X108642242Y-95386548D01*
X108642244Y-95386549D01*
X108859751Y-95457221D01*
X108859752Y-95457221D01*
X108859755Y-95457222D01*
X109085646Y-95493000D01*
X109085647Y-95493000D01*
X109314353Y-95493000D01*
X109314354Y-95493000D01*
X109540245Y-95457222D01*
X109540248Y-95457221D01*
X109540249Y-95457221D01*
X109757755Y-95386549D01*
X109757755Y-95386548D01*
X109757758Y-95386548D01*
X109961538Y-95282717D01*
X110146566Y-95148286D01*
X110308286Y-94986566D01*
X110442717Y-94801538D01*
X110546548Y-94597758D01*
X110546549Y-94597755D01*
X110617221Y-94380249D01*
X110617221Y-94380248D01*
X110617222Y-94380245D01*
X110653000Y-94154354D01*
X110653000Y-93925646D01*
X110617222Y-93699755D01*
X110617221Y-93699751D01*
X110617221Y-93699750D01*
X110546549Y-93482244D01*
X110514178Y-93418713D01*
X110442717Y-93278462D01*
X110308286Y-93093434D01*
X110146566Y-92931714D01*
X109961538Y-92797283D01*
X109922213Y-92777246D01*
X109757755Y-92693450D01*
X109540248Y-92622778D01*
X109365236Y-92595059D01*
X109314354Y-92587000D01*
X109085646Y-92587000D01*
X109034764Y-92595059D01*
X108859753Y-92622778D01*
X108859750Y-92622778D01*
X108642244Y-92693450D01*
X108438461Y-92797283D01*
X108372262Y-92845380D01*
X108253434Y-92931714D01*
X108253432Y-92931716D01*
X108253431Y-92931716D01*
X108091716Y-93093431D01*
X108091716Y-93093432D01*
X108091714Y-93093434D01*
X108033980Y-93172896D01*
X107957283Y-93278461D01*
X107853450Y-93482244D01*
X107782778Y-93699750D01*
X107782778Y-93699753D01*
X107782778Y-93699755D01*
X107747000Y-93925646D01*
X80500500Y-93925646D01*
X80500500Y-92102135D01*
X116624500Y-92102135D01*
X116624500Y-93897870D01*
X116624501Y-93897876D01*
X116630908Y-93957483D01*
X116681202Y-94092328D01*
X116681206Y-94092335D01*
X116767452Y-94207544D01*
X116767455Y-94207547D01*
X116882664Y-94293793D01*
X116882671Y-94293797D01*
X117014082Y-94342810D01*
X117070016Y-94384681D01*
X117094433Y-94450145D01*
X117079582Y-94518418D01*
X117058431Y-94546673D01*
X116944889Y-94660215D01*
X116819951Y-94832179D01*
X116723444Y-95021585D01*
X116657753Y-95223760D01*
X116624500Y-95433713D01*
X116624500Y-95646286D01*
X116657753Y-95856239D01*
X116723444Y-96058414D01*
X116819951Y-96247820D01*
X116944890Y-96419786D01*
X117095213Y-96570109D01*
X117267179Y-96695048D01*
X117267181Y-96695049D01*
X117267184Y-96695051D01*
X117456588Y-96791557D01*
X117658757Y-96857246D01*
X117868713Y-96890500D01*
X117868714Y-96890500D01*
X118081286Y-96890500D01*
X118081287Y-96890500D01*
X118291243Y-96857246D01*
X118493412Y-96791557D01*
X118682816Y-96695051D01*
X118704789Y-96679086D01*
X118854786Y-96570109D01*
X118854788Y-96570106D01*
X118854792Y-96570104D01*
X119005104Y-96419792D01*
X119005106Y-96419788D01*
X119005109Y-96419786D01*
X119130048Y-96247820D01*
X119130047Y-96247820D01*
X119130051Y-96247816D01*
X119226557Y-96058412D01*
X119292246Y-95856243D01*
X119325500Y-95646287D01*
X119325500Y-95433713D01*
X119292246Y-95223757D01*
X119226557Y-95021588D01*
X119130051Y-94832184D01*
X119130049Y-94832181D01*
X119130048Y-94832179D01*
X119005109Y-94660213D01*
X118891569Y-94546673D01*
X118858084Y-94485350D01*
X118863068Y-94415658D01*
X118904940Y-94359725D01*
X118935915Y-94342810D01*
X119067331Y-94293796D01*
X119182546Y-94207546D01*
X119268796Y-94092331D01*
X119319091Y-93957483D01*
X119325500Y-93897873D01*
X119325499Y-92102135D01*
X122624500Y-92102135D01*
X122624500Y-93897870D01*
X122624501Y-93897876D01*
X122630908Y-93957483D01*
X122681202Y-94092328D01*
X122681206Y-94092335D01*
X122767452Y-94207544D01*
X122767455Y-94207547D01*
X122882664Y-94293793D01*
X122882671Y-94293797D01*
X123014082Y-94342810D01*
X123070016Y-94384681D01*
X123094433Y-94450145D01*
X123079582Y-94518418D01*
X123058431Y-94546673D01*
X122944889Y-94660215D01*
X122819951Y-94832179D01*
X122723444Y-95021585D01*
X122657753Y-95223760D01*
X122624500Y-95433713D01*
X122624500Y-95646286D01*
X122657753Y-95856239D01*
X122723444Y-96058414D01*
X122819951Y-96247820D01*
X122944890Y-96419786D01*
X123095213Y-96570109D01*
X123267179Y-96695048D01*
X123267181Y-96695049D01*
X123267184Y-96695051D01*
X123456588Y-96791557D01*
X123658757Y-96857246D01*
X123868713Y-96890500D01*
X123868714Y-96890500D01*
X124081286Y-96890500D01*
X124081287Y-96890500D01*
X124291243Y-96857246D01*
X124493412Y-96791557D01*
X124682816Y-96695051D01*
X124704789Y-96679086D01*
X124854786Y-96570109D01*
X124854788Y-96570106D01*
X124854792Y-96570104D01*
X125005104Y-96419792D01*
X125005106Y-96419788D01*
X125005109Y-96419786D01*
X125130048Y-96247820D01*
X125130047Y-96247820D01*
X125130051Y-96247816D01*
X125226557Y-96058412D01*
X125292246Y-95856243D01*
X125325500Y-95646287D01*
X125325500Y-95433713D01*
X125292246Y-95223757D01*
X125226557Y-95021588D01*
X125130051Y-94832184D01*
X125130049Y-94832181D01*
X125130048Y-94832179D01*
X125005109Y-94660213D01*
X124891569Y-94546673D01*
X124858084Y-94485350D01*
X124863068Y-94415658D01*
X124904940Y-94359725D01*
X124935915Y-94342810D01*
X125067331Y-94293796D01*
X125182546Y-94207546D01*
X125268796Y-94092331D01*
X125319091Y-93957483D01*
X125325500Y-93897873D01*
X125325499Y-92102135D01*
X128649500Y-92102135D01*
X128649500Y-93897870D01*
X128649501Y-93897876D01*
X128655908Y-93957483D01*
X128706202Y-94092328D01*
X128706206Y-94092335D01*
X128792452Y-94207544D01*
X128792455Y-94207547D01*
X128907664Y-94293793D01*
X128907671Y-94293797D01*
X129039082Y-94342810D01*
X129095016Y-94384681D01*
X129119433Y-94450145D01*
X129104582Y-94518418D01*
X129083431Y-94546673D01*
X128969889Y-94660215D01*
X128844951Y-94832179D01*
X128748444Y-95021585D01*
X128682753Y-95223760D01*
X128649500Y-95433713D01*
X128649500Y-95646286D01*
X128682753Y-95856239D01*
X128748444Y-96058414D01*
X128844951Y-96247820D01*
X128969890Y-96419786D01*
X129120213Y-96570109D01*
X129292179Y-96695048D01*
X129292181Y-96695049D01*
X129292184Y-96695051D01*
X129481588Y-96791557D01*
X129683757Y-96857246D01*
X129893713Y-96890500D01*
X129893714Y-96890500D01*
X130106286Y-96890500D01*
X130106287Y-96890500D01*
X130316243Y-96857246D01*
X130518412Y-96791557D01*
X130707816Y-96695051D01*
X130729789Y-96679086D01*
X130879786Y-96570109D01*
X130879788Y-96570106D01*
X130879792Y-96570104D01*
X131030104Y-96419792D01*
X131030106Y-96419788D01*
X131030109Y-96419786D01*
X131155048Y-96247820D01*
X131155047Y-96247820D01*
X131155051Y-96247816D01*
X131251557Y-96058412D01*
X131317246Y-95856243D01*
X131350500Y-95646287D01*
X131350500Y-95433713D01*
X131317246Y-95223757D01*
X131251557Y-95021588D01*
X131155051Y-94832184D01*
X131155049Y-94832181D01*
X131155048Y-94832179D01*
X131030109Y-94660213D01*
X130916569Y-94546673D01*
X130883084Y-94485350D01*
X130888068Y-94415658D01*
X130929940Y-94359725D01*
X130960915Y-94342810D01*
X131092331Y-94293796D01*
X131207546Y-94207546D01*
X131293796Y-94092331D01*
X131344091Y-93957483D01*
X131350500Y-93897873D01*
X131350499Y-92102128D01*
X131344091Y-92042517D01*
X131320181Y-91978412D01*
X131293797Y-91907671D01*
X131293793Y-91907664D01*
X131207547Y-91792455D01*
X131207544Y-91792452D01*
X131092335Y-91706206D01*
X131092328Y-91706202D01*
X130957482Y-91655908D01*
X130957483Y-91655908D01*
X130897883Y-91649501D01*
X130897881Y-91649500D01*
X130897873Y-91649500D01*
X130897864Y-91649500D01*
X129102129Y-91649500D01*
X129102123Y-91649501D01*
X129042516Y-91655908D01*
X128907671Y-91706202D01*
X128907664Y-91706206D01*
X128792455Y-91792452D01*
X128792452Y-91792455D01*
X128706206Y-91907664D01*
X128706202Y-91907671D01*
X128655908Y-92042517D01*
X128649501Y-92102116D01*
X128649501Y-92102123D01*
X128649500Y-92102135D01*
X125325499Y-92102135D01*
X125325499Y-92102128D01*
X125319091Y-92042517D01*
X125295181Y-91978412D01*
X125268797Y-91907671D01*
X125268793Y-91907664D01*
X125182547Y-91792455D01*
X125182544Y-91792452D01*
X125067335Y-91706206D01*
X125067328Y-91706202D01*
X124932482Y-91655908D01*
X124932483Y-91655908D01*
X124872883Y-91649501D01*
X124872881Y-91649500D01*
X124872873Y-91649500D01*
X124872864Y-91649500D01*
X123077129Y-91649500D01*
X123077123Y-91649501D01*
X123017516Y-91655908D01*
X122882671Y-91706202D01*
X122882664Y-91706206D01*
X122767455Y-91792452D01*
X122767452Y-91792455D01*
X122681206Y-91907664D01*
X122681202Y-91907671D01*
X122630908Y-92042517D01*
X122624501Y-92102116D01*
X122624501Y-92102123D01*
X122624500Y-92102135D01*
X119325499Y-92102135D01*
X119325499Y-92102128D01*
X119319091Y-92042517D01*
X119295181Y-91978412D01*
X119268797Y-91907671D01*
X119268793Y-91907664D01*
X119182547Y-91792455D01*
X119182544Y-91792452D01*
X119067335Y-91706206D01*
X119067328Y-91706202D01*
X118932482Y-91655908D01*
X118932483Y-91655908D01*
X118872883Y-91649501D01*
X118872881Y-91649500D01*
X118872873Y-91649500D01*
X118872864Y-91649500D01*
X117077129Y-91649500D01*
X117077123Y-91649501D01*
X117017516Y-91655908D01*
X116882671Y-91706202D01*
X116882664Y-91706206D01*
X116767455Y-91792452D01*
X116767452Y-91792455D01*
X116681206Y-91907664D01*
X116681202Y-91907671D01*
X116630908Y-92042517D01*
X116624501Y-92102116D01*
X116624501Y-92102123D01*
X116624500Y-92102135D01*
X80500500Y-92102135D01*
X80500500Y-88845646D01*
X107747000Y-88845646D01*
X107747000Y-89074354D01*
X107753807Y-89117331D01*
X107782778Y-89300246D01*
X107782778Y-89300249D01*
X107853450Y-89517755D01*
X107853452Y-89517758D01*
X107957283Y-89721538D01*
X108091714Y-89906566D01*
X108253434Y-90068286D01*
X108438462Y-90202717D01*
X108630341Y-90300484D01*
X108642244Y-90306549D01*
X108859751Y-90377221D01*
X108859752Y-90377221D01*
X108859755Y-90377222D01*
X109085646Y-90413000D01*
X109085647Y-90413000D01*
X109314353Y-90413000D01*
X109314354Y-90413000D01*
X109540245Y-90377222D01*
X109540248Y-90377221D01*
X109540249Y-90377221D01*
X109757755Y-90306549D01*
X109757755Y-90306548D01*
X109757758Y-90306548D01*
X109961538Y-90202717D01*
X110146566Y-90068286D01*
X110308286Y-89906566D01*
X110442717Y-89721538D01*
X110546548Y-89517758D01*
X110611194Y-89318797D01*
X110617221Y-89300249D01*
X110617221Y-89300248D01*
X110617222Y-89300245D01*
X110653000Y-89074354D01*
X110653000Y-88845646D01*
X110649673Y-88824643D01*
X110647942Y-88813713D01*
X137149500Y-88813713D01*
X137149500Y-89026286D01*
X137182168Y-89232547D01*
X137182754Y-89236243D01*
X137228001Y-89375499D01*
X137248444Y-89438414D01*
X137344951Y-89627820D01*
X137469890Y-89799786D01*
X137620213Y-89950109D01*
X137792182Y-90075050D01*
X137800946Y-90079516D01*
X137851742Y-90127491D01*
X137868536Y-90195312D01*
X137845998Y-90261447D01*
X137800946Y-90300484D01*
X137792182Y-90304949D01*
X137620213Y-90429890D01*
X137469890Y-90580213D01*
X137344951Y-90752179D01*
X137248444Y-90941585D01*
X137182753Y-91143760D01*
X137149500Y-91353713D01*
X137149500Y-91566286D01*
X137171660Y-91706202D01*
X137182754Y-91776243D01*
X137225455Y-91907664D01*
X137248444Y-91978414D01*
X137344951Y-92167820D01*
X137469890Y-92339786D01*
X137620213Y-92490109D01*
X137792179Y-92615048D01*
X137792181Y-92615049D01*
X137792184Y-92615051D01*
X137801493Y-92619794D01*
X137852290Y-92667766D01*
X137869087Y-92735587D01*
X137846552Y-92801722D01*
X137801505Y-92840760D01*
X137792446Y-92845376D01*
X137792440Y-92845380D01*
X137738282Y-92884727D01*
X137738282Y-92884728D01*
X138370591Y-93517037D01*
X138307007Y-93534075D01*
X138192993Y-93599901D01*
X138099901Y-93692993D01*
X138034075Y-93807007D01*
X138017037Y-93870591D01*
X137384728Y-93238282D01*
X137384727Y-93238282D01*
X137345380Y-93292439D01*
X137248904Y-93481782D01*
X137183242Y-93683869D01*
X137183242Y-93683872D01*
X137150000Y-93893753D01*
X137150000Y-94106246D01*
X137183242Y-94316127D01*
X137183242Y-94316130D01*
X137248904Y-94518217D01*
X137345375Y-94707550D01*
X137384728Y-94761716D01*
X138017037Y-94129408D01*
X138034075Y-94192993D01*
X138099901Y-94307007D01*
X138192993Y-94400099D01*
X138307007Y-94465925D01*
X138370590Y-94482962D01*
X137700370Y-95153181D01*
X137639047Y-95186666D01*
X137612698Y-95189500D01*
X137602134Y-95189500D01*
X137602123Y-95189501D01*
X137542516Y-95195908D01*
X137407671Y-95246202D01*
X137407664Y-95246206D01*
X137292455Y-95332452D01*
X137292452Y-95332455D01*
X137206206Y-95447664D01*
X137206202Y-95447671D01*
X137155908Y-95582517D01*
X137149501Y-95642116D01*
X137149501Y-95642123D01*
X137149500Y-95642135D01*
X137149500Y-97437870D01*
X137149501Y-97437876D01*
X137155908Y-97497483D01*
X137206202Y-97632328D01*
X137206206Y-97632335D01*
X137292452Y-97747544D01*
X137292455Y-97747547D01*
X137407664Y-97833793D01*
X137407671Y-97833797D01*
X137542517Y-97884091D01*
X137542516Y-97884091D01*
X137549444Y-97884835D01*
X137602127Y-97890500D01*
X139397872Y-97890499D01*
X139457483Y-97884091D01*
X139592331Y-97833796D01*
X139707546Y-97747546D01*
X139793796Y-97632331D01*
X139844091Y-97497483D01*
X139850500Y-97437873D01*
X139850499Y-95642128D01*
X139844091Y-95582517D01*
X139810703Y-95493000D01*
X139793797Y-95447671D01*
X139793793Y-95447664D01*
X139707547Y-95332455D01*
X139707544Y-95332452D01*
X139592335Y-95246206D01*
X139592328Y-95246202D01*
X139457482Y-95195908D01*
X139457483Y-95195908D01*
X139397883Y-95189501D01*
X139397881Y-95189500D01*
X139397873Y-95189500D01*
X139397865Y-95189500D01*
X139387309Y-95189500D01*
X139320270Y-95169815D01*
X139299628Y-95153181D01*
X138629408Y-94482962D01*
X138692993Y-94465925D01*
X138807007Y-94400099D01*
X138900099Y-94307007D01*
X138965925Y-94192993D01*
X138982962Y-94129408D01*
X139615270Y-94761717D01*
X139615270Y-94761716D01*
X139654622Y-94707554D01*
X139751095Y-94518217D01*
X139816757Y-94316130D01*
X139816757Y-94316127D01*
X139850000Y-94106246D01*
X139850000Y-93893753D01*
X139816757Y-93683872D01*
X139816757Y-93683869D01*
X139751095Y-93481782D01*
X139654624Y-93292449D01*
X139615270Y-93238282D01*
X139615269Y-93238282D01*
X138982962Y-93870590D01*
X138965925Y-93807007D01*
X138900099Y-93692993D01*
X138807007Y-93599901D01*
X138692993Y-93534075D01*
X138629409Y-93517037D01*
X139261716Y-92884728D01*
X139207547Y-92845373D01*
X139207547Y-92845372D01*
X139198500Y-92840763D01*
X139195711Y-92838129D01*
X139191991Y-92837197D01*
X139170516Y-92814332D01*
X139147706Y-92792788D01*
X139146783Y-92789063D01*
X139144158Y-92786268D01*
X139138453Y-92755420D01*
X139130912Y-92724966D01*
X139132149Y-92721335D01*
X139131452Y-92717564D01*
X139143328Y-92688533D01*
X139153451Y-92658832D01*
X139156877Y-92655415D01*
X139157908Y-92652896D01*
X139166109Y-92646208D01*
X139183634Y-92628734D01*
X139185915Y-92627135D01*
X146624500Y-92627135D01*
X146624500Y-94422870D01*
X146624501Y-94422876D01*
X146630908Y-94482483D01*
X146681202Y-94617328D01*
X146681206Y-94617335D01*
X146767452Y-94732544D01*
X146767455Y-94732547D01*
X146882664Y-94818793D01*
X146882671Y-94818797D01*
X147017517Y-94869091D01*
X147017516Y-94869091D01*
X147024444Y-94869835D01*
X147077127Y-94875500D01*
X148872872Y-94875499D01*
X148932483Y-94869091D01*
X149067331Y-94818796D01*
X149182546Y-94732546D01*
X149268796Y-94617331D01*
X149317810Y-94485916D01*
X149359681Y-94429984D01*
X149425145Y-94405566D01*
X149493418Y-94420417D01*
X149521673Y-94441569D01*
X149635213Y-94555109D01*
X149807179Y-94680048D01*
X149807181Y-94680049D01*
X149807184Y-94680051D01*
X149996588Y-94776557D01*
X150198757Y-94842246D01*
X150408713Y-94875500D01*
X150408714Y-94875500D01*
X150621286Y-94875500D01*
X150621287Y-94875500D01*
X150831243Y-94842246D01*
X151033412Y-94776557D01*
X151222816Y-94680051D01*
X151309138Y-94617335D01*
X151394786Y-94555109D01*
X151394788Y-94555106D01*
X151394792Y-94555104D01*
X151545104Y-94404792D01*
X151545106Y-94404788D01*
X151545109Y-94404786D01*
X151670048Y-94232820D01*
X151670047Y-94232820D01*
X151670051Y-94232816D01*
X151674514Y-94224054D01*
X151722488Y-94173259D01*
X151790308Y-94156463D01*
X151856444Y-94178999D01*
X151895486Y-94224056D01*
X151899951Y-94232820D01*
X152024890Y-94404786D01*
X152175213Y-94555109D01*
X152347179Y-94680048D01*
X152347181Y-94680049D01*
X152347184Y-94680051D01*
X152536588Y-94776557D01*
X152738757Y-94842246D01*
X152948713Y-94875500D01*
X152948714Y-94875500D01*
X153161286Y-94875500D01*
X153161287Y-94875500D01*
X153371243Y-94842246D01*
X153573412Y-94776557D01*
X153762816Y-94680051D01*
X153849138Y-94617335D01*
X153934786Y-94555109D01*
X153934788Y-94555106D01*
X153934792Y-94555104D01*
X154085104Y-94404792D01*
X154085106Y-94404788D01*
X154085109Y-94404786D01*
X154210048Y-94232820D01*
X154210047Y-94232820D01*
X154210051Y-94232816D01*
X154306557Y-94043412D01*
X154372246Y-93841243D01*
X154405500Y-93631287D01*
X154405500Y-93418713D01*
X154372246Y-93208757D01*
X154306557Y-93006588D01*
X154210051Y-92817184D01*
X154210049Y-92817181D01*
X154210048Y-92817179D01*
X154085109Y-92645213D01*
X153934786Y-92494890D01*
X153762820Y-92369951D01*
X153573414Y-92273444D01*
X153573413Y-92273443D01*
X153573412Y-92273443D01*
X153371243Y-92207754D01*
X153371241Y-92207753D01*
X153371240Y-92207753D01*
X153209957Y-92182208D01*
X153161287Y-92174500D01*
X152948713Y-92174500D01*
X152900042Y-92182208D01*
X152738760Y-92207753D01*
X152536585Y-92273444D01*
X152347179Y-92369951D01*
X152175213Y-92494890D01*
X152024890Y-92645213D01*
X151899949Y-92817182D01*
X151895484Y-92825946D01*
X151847509Y-92876742D01*
X151779688Y-92893536D01*
X151713553Y-92870998D01*
X151674516Y-92825946D01*
X151670050Y-92817182D01*
X151545109Y-92645213D01*
X151394786Y-92494890D01*
X151222820Y-92369951D01*
X151033414Y-92273444D01*
X151033413Y-92273443D01*
X151033412Y-92273443D01*
X150831243Y-92207754D01*
X150831241Y-92207753D01*
X150831240Y-92207753D01*
X150669957Y-92182208D01*
X150621287Y-92174500D01*
X150408713Y-92174500D01*
X150360042Y-92182208D01*
X150198760Y-92207753D01*
X149996585Y-92273444D01*
X149807179Y-92369951D01*
X149635215Y-92494889D01*
X149521673Y-92608431D01*
X149460350Y-92641915D01*
X149390658Y-92636931D01*
X149334725Y-92595059D01*
X149317810Y-92564082D01*
X149268797Y-92432671D01*
X149268793Y-92432664D01*
X149182547Y-92317455D01*
X149182544Y-92317452D01*
X149067335Y-92231206D01*
X149067328Y-92231202D01*
X148932482Y-92180908D01*
X148932483Y-92180908D01*
X148872883Y-92174501D01*
X148872881Y-92174500D01*
X148872873Y-92174500D01*
X148872864Y-92174500D01*
X147077129Y-92174500D01*
X147077123Y-92174501D01*
X147017516Y-92180908D01*
X146882671Y-92231202D01*
X146882664Y-92231206D01*
X146767455Y-92317452D01*
X146767452Y-92317455D01*
X146681206Y-92432664D01*
X146681202Y-92432671D01*
X146630908Y-92567517D01*
X146624501Y-92627116D01*
X146624500Y-92627135D01*
X139185915Y-92627135D01*
X139190752Y-92623745D01*
X139207816Y-92615051D01*
X139379792Y-92490104D01*
X139530104Y-92339792D01*
X139530106Y-92339788D01*
X139530109Y-92339786D01*
X139655048Y-92167820D01*
X139655047Y-92167820D01*
X139655051Y-92167816D01*
X139751557Y-91978412D01*
X139817246Y-91776243D01*
X139850500Y-91566287D01*
X139850500Y-91353713D01*
X139817246Y-91143757D01*
X139751557Y-90941588D01*
X139655051Y-90752184D01*
X139655049Y-90752181D01*
X139655048Y-90752179D01*
X139530109Y-90580213D01*
X139379786Y-90429890D01*
X139207820Y-90304951D01*
X139207115Y-90304591D01*
X139199054Y-90300485D01*
X139148259Y-90252512D01*
X139131463Y-90184692D01*
X139153999Y-90118556D01*
X139199054Y-90079515D01*
X139207816Y-90075051D01*
X139229789Y-90059086D01*
X139379786Y-89950109D01*
X139379788Y-89950106D01*
X139379792Y-89950104D01*
X139530104Y-89799792D01*
X139530106Y-89799788D01*
X139530109Y-89799786D01*
X139655048Y-89627820D01*
X139655047Y-89627820D01*
X139655051Y-89627816D01*
X139751557Y-89438412D01*
X139817246Y-89236243D01*
X139850500Y-89026287D01*
X139850500Y-88813713D01*
X139817246Y-88603757D01*
X139751557Y-88401588D01*
X139655051Y-88212184D01*
X139655049Y-88212181D01*
X139655048Y-88212179D01*
X139530109Y-88040213D01*
X139379786Y-87889890D01*
X139207820Y-87764951D01*
X139018414Y-87668444D01*
X139018413Y-87668443D01*
X139018412Y-87668443D01*
X138816243Y-87602754D01*
X138816241Y-87602753D01*
X138816240Y-87602753D01*
X138654957Y-87577208D01*
X138606287Y-87569500D01*
X138393713Y-87569500D01*
X138345042Y-87577208D01*
X138183760Y-87602753D01*
X137981585Y-87668444D01*
X137792179Y-87764951D01*
X137620213Y-87889890D01*
X137469890Y-88040213D01*
X137344951Y-88212179D01*
X137248444Y-88401585D01*
X137182753Y-88603760D01*
X137149500Y-88813713D01*
X110647942Y-88813713D01*
X110635088Y-88732554D01*
X110617222Y-88619755D01*
X110617221Y-88619751D01*
X110617221Y-88619750D01*
X110546549Y-88402244D01*
X110515408Y-88341127D01*
X110442717Y-88198462D01*
X110308286Y-88013434D01*
X110146566Y-87851714D01*
X109961538Y-87717283D01*
X109757755Y-87613450D01*
X109540248Y-87542778D01*
X109370826Y-87515944D01*
X109314354Y-87507000D01*
X109085646Y-87507000D01*
X109010349Y-87518926D01*
X108859753Y-87542778D01*
X108859750Y-87542778D01*
X108642244Y-87613450D01*
X108438461Y-87717283D01*
X108332896Y-87793980D01*
X108253434Y-87851714D01*
X108253432Y-87851716D01*
X108253431Y-87851716D01*
X108091716Y-88013431D01*
X108091716Y-88013432D01*
X108091714Y-88013434D01*
X108083312Y-88024999D01*
X107957283Y-88198461D01*
X107853450Y-88402244D01*
X107782778Y-88619750D01*
X107782778Y-88619753D01*
X107752058Y-88813713D01*
X107747000Y-88845646D01*
X80500500Y-88845646D01*
X80500500Y-87127135D01*
X147624500Y-87127135D01*
X147624500Y-88922870D01*
X147624501Y-88922876D01*
X147630908Y-88982483D01*
X147681202Y-89117328D01*
X147681206Y-89117335D01*
X147767452Y-89232544D01*
X147767455Y-89232547D01*
X147882664Y-89318793D01*
X147882671Y-89318797D01*
X148017517Y-89369091D01*
X148017516Y-89369091D01*
X148024444Y-89369835D01*
X148077127Y-89375500D01*
X149872872Y-89375499D01*
X149932483Y-89369091D01*
X150067331Y-89318796D01*
X150182546Y-89232546D01*
X150268796Y-89117331D01*
X150319091Y-88982483D01*
X150325500Y-88922873D01*
X150325499Y-88898979D01*
X150328330Y-88885963D01*
X150338940Y-88866525D01*
X150345179Y-88845275D01*
X150361803Y-88824643D01*
X150361808Y-88824636D01*
X150361811Y-88824634D01*
X150361818Y-88824626D01*
X151032037Y-88154408D01*
X151049075Y-88217993D01*
X151114901Y-88332007D01*
X151207993Y-88425099D01*
X151322007Y-88490925D01*
X151385590Y-88507962D01*
X150753282Y-89140269D01*
X150753282Y-89140270D01*
X150807449Y-89179624D01*
X150996782Y-89276095D01*
X151198870Y-89341757D01*
X151408754Y-89375000D01*
X151621246Y-89375000D01*
X151831127Y-89341757D01*
X151831130Y-89341757D01*
X152033217Y-89276095D01*
X152222554Y-89179622D01*
X152276716Y-89140270D01*
X152276717Y-89140270D01*
X151644408Y-88507962D01*
X151707993Y-88490925D01*
X151822007Y-88425099D01*
X151915099Y-88332007D01*
X151980925Y-88217993D01*
X151997962Y-88154408D01*
X152630270Y-88786717D01*
X152630270Y-88786716D01*
X152669622Y-88732554D01*
X152766095Y-88543217D01*
X152831757Y-88341130D01*
X152831757Y-88341127D01*
X152865000Y-88131246D01*
X152865000Y-87918753D01*
X152831757Y-87708872D01*
X152831757Y-87708869D01*
X152766095Y-87506782D01*
X152669624Y-87317449D01*
X152630270Y-87263282D01*
X152630269Y-87263282D01*
X151997962Y-87895590D01*
X151980925Y-87832007D01*
X151915099Y-87717993D01*
X151822007Y-87624901D01*
X151707993Y-87559075D01*
X151644409Y-87542037D01*
X152276716Y-86909728D01*
X152222550Y-86870375D01*
X152033217Y-86773904D01*
X151831129Y-86708242D01*
X151621246Y-86675000D01*
X151408754Y-86675000D01*
X151198872Y-86708242D01*
X151198869Y-86708242D01*
X150996782Y-86773904D01*
X150807439Y-86870380D01*
X150753282Y-86909727D01*
X150753282Y-86909728D01*
X151385591Y-87542037D01*
X151322007Y-87559075D01*
X151207993Y-87624901D01*
X151114901Y-87717993D01*
X151049075Y-87832007D01*
X151032037Y-87895591D01*
X150361818Y-87225372D01*
X150328333Y-87164049D01*
X150328330Y-87164036D01*
X150325499Y-87151015D01*
X150325499Y-87127128D01*
X150319091Y-87067517D01*
X150290926Y-86992002D01*
X150268798Y-86932673D01*
X150268793Y-86932664D01*
X150182547Y-86817455D01*
X150182544Y-86817452D01*
X150067335Y-86731206D01*
X150067328Y-86731202D01*
X149932482Y-86680908D01*
X149932483Y-86680908D01*
X149872883Y-86674501D01*
X149872881Y-86674500D01*
X149872873Y-86674500D01*
X149872864Y-86674500D01*
X148077129Y-86674500D01*
X148077123Y-86674501D01*
X148017516Y-86680908D01*
X147882671Y-86731202D01*
X147882664Y-86731206D01*
X147767455Y-86817452D01*
X147767452Y-86817455D01*
X147681206Y-86932664D01*
X147681202Y-86932671D01*
X147630908Y-87067517D01*
X147624501Y-87127116D01*
X147624500Y-87127135D01*
X80500500Y-87127135D01*
X80500500Y-82119638D01*
X82410500Y-82119638D01*
X82410500Y-84116361D01*
X82444714Y-84332376D01*
X82512297Y-84540380D01*
X82512298Y-84540383D01*
X82611595Y-84735260D01*
X82740142Y-84912193D01*
X82894806Y-85066857D01*
X83060374Y-85187147D01*
X83071743Y-85195407D01*
X83199132Y-85260315D01*
X83266616Y-85294701D01*
X83266619Y-85294702D01*
X83370621Y-85328493D01*
X83474625Y-85362286D01*
X83574672Y-85378132D01*
X83690639Y-85396500D01*
X83690644Y-85396500D01*
X83909361Y-85396500D01*
X84014082Y-85379912D01*
X84125375Y-85362286D01*
X84333383Y-85294701D01*
X84528257Y-85195407D01*
X84627601Y-85123229D01*
X84705193Y-85066857D01*
X84705195Y-85066854D01*
X84705199Y-85066852D01*
X84859852Y-84912199D01*
X84969683Y-84761028D01*
X85025011Y-84718364D01*
X85094624Y-84712385D01*
X85156420Y-84744990D01*
X85170313Y-84761023D01*
X85280144Y-84912193D01*
X85280148Y-84912199D01*
X85434806Y-85066857D01*
X85600374Y-85187147D01*
X85611743Y-85195407D01*
X85739132Y-85260315D01*
X85806616Y-85294701D01*
X85806619Y-85294702D01*
X85910621Y-85328493D01*
X86014625Y-85362286D01*
X86114672Y-85378132D01*
X86230639Y-85396500D01*
X86230644Y-85396500D01*
X86449361Y-85396500D01*
X86554082Y-85379912D01*
X86665375Y-85362286D01*
X86873383Y-85294701D01*
X87068257Y-85195407D01*
X87167601Y-85123229D01*
X87245193Y-85066857D01*
X87245195Y-85066854D01*
X87245199Y-85066852D01*
X87399852Y-84912199D01*
X87509683Y-84761028D01*
X87565011Y-84718364D01*
X87634624Y-84712385D01*
X87696420Y-84744990D01*
X87710313Y-84761023D01*
X87820144Y-84912193D01*
X87820148Y-84912199D01*
X87974806Y-85066857D01*
X88140374Y-85187147D01*
X88151743Y-85195407D01*
X88279132Y-85260315D01*
X88346616Y-85294701D01*
X88346619Y-85294702D01*
X88450621Y-85328493D01*
X88554625Y-85362286D01*
X88654672Y-85378132D01*
X88770639Y-85396500D01*
X88770644Y-85396500D01*
X88989361Y-85396500D01*
X89094082Y-85379912D01*
X89205375Y-85362286D01*
X89413383Y-85294701D01*
X89608257Y-85195407D01*
X89707601Y-85123229D01*
X89785193Y-85066857D01*
X89785195Y-85066854D01*
X89785199Y-85066852D01*
X89939852Y-84912199D01*
X90049683Y-84761028D01*
X90105011Y-84718364D01*
X90174624Y-84712385D01*
X90236420Y-84744990D01*
X90250313Y-84761023D01*
X90360144Y-84912193D01*
X90360148Y-84912199D01*
X90514806Y-85066857D01*
X90680374Y-85187147D01*
X90691743Y-85195407D01*
X90819132Y-85260315D01*
X90886616Y-85294701D01*
X90886619Y-85294702D01*
X90990621Y-85328493D01*
X91094625Y-85362286D01*
X91194672Y-85378132D01*
X91310639Y-85396500D01*
X91310644Y-85396500D01*
X91529361Y-85396500D01*
X91634082Y-85379912D01*
X91745375Y-85362286D01*
X91953383Y-85294701D01*
X92148257Y-85195407D01*
X92247601Y-85123229D01*
X92325193Y-85066857D01*
X92325195Y-85066854D01*
X92325199Y-85066852D01*
X92479852Y-84912199D01*
X92589683Y-84761028D01*
X92645011Y-84718364D01*
X92714624Y-84712385D01*
X92776420Y-84744990D01*
X92790313Y-84761023D01*
X92900144Y-84912193D01*
X92900148Y-84912199D01*
X93054806Y-85066857D01*
X93220374Y-85187147D01*
X93231743Y-85195407D01*
X93359132Y-85260315D01*
X93426616Y-85294701D01*
X93426619Y-85294702D01*
X93530621Y-85328493D01*
X93634625Y-85362286D01*
X93734672Y-85378132D01*
X93850639Y-85396500D01*
X93850644Y-85396500D01*
X94069361Y-85396500D01*
X94174082Y-85379912D01*
X94285375Y-85362286D01*
X94493383Y-85294701D01*
X94688257Y-85195407D01*
X94787601Y-85123229D01*
X94865193Y-85066857D01*
X94865195Y-85066854D01*
X94865199Y-85066852D01*
X95019852Y-84912199D01*
X95129683Y-84761028D01*
X95185011Y-84718364D01*
X95254624Y-84712385D01*
X95316420Y-84744990D01*
X95330313Y-84761023D01*
X95440144Y-84912193D01*
X95440148Y-84912199D01*
X95594806Y-85066857D01*
X95760374Y-85187147D01*
X95771743Y-85195407D01*
X95899132Y-85260315D01*
X95966616Y-85294701D01*
X95966619Y-85294702D01*
X96070621Y-85328493D01*
X96174625Y-85362286D01*
X96274672Y-85378132D01*
X96390639Y-85396500D01*
X96390644Y-85396500D01*
X96609361Y-85396500D01*
X96714082Y-85379912D01*
X96825375Y-85362286D01*
X97033383Y-85294701D01*
X97228257Y-85195407D01*
X97327601Y-85123229D01*
X97405193Y-85066857D01*
X97405195Y-85066854D01*
X97405199Y-85066852D01*
X97559852Y-84912199D01*
X97669683Y-84761028D01*
X97725011Y-84718364D01*
X97794624Y-84712385D01*
X97856420Y-84744990D01*
X97870313Y-84761023D01*
X97980144Y-84912193D01*
X97980148Y-84912199D01*
X98134806Y-85066857D01*
X98300374Y-85187147D01*
X98311743Y-85195407D01*
X98439132Y-85260315D01*
X98506616Y-85294701D01*
X98506619Y-85294702D01*
X98610621Y-85328493D01*
X98714625Y-85362286D01*
X98814672Y-85378132D01*
X98930639Y-85396500D01*
X98930644Y-85396500D01*
X99149361Y-85396500D01*
X99254082Y-85379912D01*
X99365375Y-85362286D01*
X99573383Y-85294701D01*
X99768257Y-85195407D01*
X99867601Y-85123229D01*
X99945193Y-85066857D01*
X99945195Y-85066854D01*
X99945199Y-85066852D01*
X100099852Y-84912199D01*
X100099854Y-84912195D01*
X100099857Y-84912193D01*
X100156229Y-84834601D01*
X100228407Y-84735257D01*
X100327701Y-84540383D01*
X100395286Y-84332375D01*
X100412912Y-84221082D01*
X100429500Y-84116361D01*
X100429500Y-82315837D01*
X112239500Y-82315837D01*
X112239500Y-82544162D01*
X112275215Y-82769660D01*
X112345770Y-82986803D01*
X112449421Y-83190228D01*
X112583621Y-83374937D01*
X112745063Y-83536379D01*
X112929772Y-83670579D01*
X113025884Y-83719550D01*
X113133196Y-83774229D01*
X113133198Y-83774229D01*
X113133201Y-83774231D01*
X113249592Y-83812049D01*
X113350339Y-83844784D01*
X113575838Y-83880500D01*
X113575843Y-83880500D01*
X113804162Y-83880500D01*
X114029660Y-83844784D01*
X114246799Y-83774231D01*
X114450228Y-83670579D01*
X114634937Y-83536379D01*
X114796379Y-83374937D01*
X114930579Y-83190228D01*
X115034231Y-82986799D01*
X115104784Y-82769660D01*
X115115241Y-82703638D01*
X115140500Y-82544162D01*
X115140500Y-82315837D01*
X115104784Y-82090339D01*
X115044116Y-81903625D01*
X115034231Y-81873201D01*
X115034229Y-81873198D01*
X115034229Y-81873196D01*
X114951331Y-81710500D01*
X114930579Y-81669772D01*
X114796379Y-81485063D01*
X114634937Y-81323621D01*
X114450228Y-81189421D01*
X114410440Y-81169148D01*
X114246803Y-81085770D01*
X114029660Y-81015215D01*
X113804162Y-80979500D01*
X113804157Y-80979500D01*
X113575843Y-80979500D01*
X113575838Y-80979500D01*
X113350339Y-81015215D01*
X113133196Y-81085770D01*
X112929771Y-81189421D01*
X112745061Y-81323622D01*
X112583622Y-81485061D01*
X112449421Y-81669771D01*
X112345770Y-81873196D01*
X112275215Y-82090339D01*
X112239500Y-82315837D01*
X100429500Y-82315837D01*
X100429500Y-82119638D01*
X100408071Y-81984346D01*
X100395286Y-81903625D01*
X100327701Y-81695617D01*
X100327701Y-81695616D01*
X100240060Y-81523614D01*
X100228407Y-81500743D01*
X100209681Y-81474969D01*
X100099857Y-81323806D01*
X99945193Y-81169142D01*
X99768260Y-81040595D01*
X99768259Y-81040594D01*
X99768257Y-81040593D01*
X99705825Y-81008782D01*
X99573383Y-80941298D01*
X99573380Y-80941297D01*
X99365376Y-80873714D01*
X99149361Y-80839500D01*
X99149356Y-80839500D01*
X98930644Y-80839500D01*
X98930639Y-80839500D01*
X98714623Y-80873714D01*
X98506619Y-80941297D01*
X98506616Y-80941298D01*
X98311739Y-81040595D01*
X98134806Y-81169142D01*
X97980142Y-81323806D01*
X97870318Y-81474969D01*
X97814989Y-81517635D01*
X97745375Y-81523614D01*
X97683580Y-81491009D01*
X97669682Y-81474969D01*
X97559857Y-81323806D01*
X97405193Y-81169142D01*
X97228260Y-81040595D01*
X97228259Y-81040594D01*
X97228257Y-81040593D01*
X97165825Y-81008782D01*
X97033383Y-80941298D01*
X97033380Y-80941297D01*
X96825376Y-80873714D01*
X96609361Y-80839500D01*
X96609356Y-80839500D01*
X96390644Y-80839500D01*
X96390639Y-80839500D01*
X96174623Y-80873714D01*
X95966619Y-80941297D01*
X95966616Y-80941298D01*
X95771739Y-81040595D01*
X95594806Y-81169142D01*
X95440142Y-81323806D01*
X95330318Y-81474969D01*
X95274989Y-81517635D01*
X95205375Y-81523614D01*
X95143580Y-81491009D01*
X95129682Y-81474969D01*
X95019857Y-81323806D01*
X94865193Y-81169142D01*
X94688260Y-81040595D01*
X94688259Y-81040594D01*
X94688257Y-81040593D01*
X94625825Y-81008782D01*
X94493383Y-80941298D01*
X94493380Y-80941297D01*
X94285376Y-80873714D01*
X94069361Y-80839500D01*
X94069356Y-80839500D01*
X93850644Y-80839500D01*
X93850639Y-80839500D01*
X93634623Y-80873714D01*
X93426619Y-80941297D01*
X93426616Y-80941298D01*
X93231739Y-81040595D01*
X93054806Y-81169142D01*
X92900142Y-81323806D01*
X92790318Y-81474969D01*
X92734989Y-81517635D01*
X92665375Y-81523614D01*
X92603580Y-81491009D01*
X92589682Y-81474969D01*
X92479857Y-81323806D01*
X92325193Y-81169142D01*
X92148260Y-81040595D01*
X92148259Y-81040594D01*
X92148257Y-81040593D01*
X92085825Y-81008782D01*
X91953383Y-80941298D01*
X91953380Y-80941297D01*
X91745376Y-80873714D01*
X91529361Y-80839500D01*
X91529356Y-80839500D01*
X91310644Y-80839500D01*
X91310639Y-80839500D01*
X91094623Y-80873714D01*
X90886619Y-80941297D01*
X90886616Y-80941298D01*
X90691739Y-81040595D01*
X90514806Y-81169142D01*
X90360142Y-81323806D01*
X90250318Y-81474969D01*
X90194989Y-81517635D01*
X90125375Y-81523614D01*
X90063580Y-81491009D01*
X90049682Y-81474969D01*
X89939857Y-81323806D01*
X89785193Y-81169142D01*
X89608260Y-81040595D01*
X89608259Y-81040594D01*
X89608257Y-81040593D01*
X89545825Y-81008782D01*
X89413383Y-80941298D01*
X89413380Y-80941297D01*
X89205376Y-80873714D01*
X88989361Y-80839500D01*
X88989356Y-80839500D01*
X88770644Y-80839500D01*
X88770639Y-80839500D01*
X88554623Y-80873714D01*
X88346619Y-80941297D01*
X88346616Y-80941298D01*
X88151739Y-81040595D01*
X87974806Y-81169142D01*
X87820142Y-81323806D01*
X87710318Y-81474969D01*
X87654989Y-81517635D01*
X87585375Y-81523614D01*
X87523580Y-81491009D01*
X87509682Y-81474969D01*
X87399857Y-81323806D01*
X87245193Y-81169142D01*
X87068260Y-81040595D01*
X87068259Y-81040594D01*
X87068257Y-81040593D01*
X87005825Y-81008782D01*
X86873383Y-80941298D01*
X86873380Y-80941297D01*
X86665376Y-80873714D01*
X86449361Y-80839500D01*
X86449356Y-80839500D01*
X86230644Y-80839500D01*
X86230639Y-80839500D01*
X86014623Y-80873714D01*
X85806619Y-80941297D01*
X85806616Y-80941298D01*
X85611739Y-81040595D01*
X85434806Y-81169142D01*
X85280142Y-81323806D01*
X85170318Y-81474969D01*
X85114989Y-81517635D01*
X85045375Y-81523614D01*
X84983580Y-81491009D01*
X84969682Y-81474969D01*
X84859857Y-81323806D01*
X84705193Y-81169142D01*
X84528260Y-81040595D01*
X84528259Y-81040594D01*
X84528257Y-81040593D01*
X84465825Y-81008782D01*
X84333383Y-80941298D01*
X84333380Y-80941297D01*
X84125376Y-80873714D01*
X83909361Y-80839500D01*
X83909356Y-80839500D01*
X83690644Y-80839500D01*
X83690639Y-80839500D01*
X83474623Y-80873714D01*
X83266619Y-80941297D01*
X83266616Y-80941298D01*
X83071739Y-81040595D01*
X82894806Y-81169142D01*
X82740142Y-81323806D01*
X82611595Y-81500739D01*
X82512298Y-81695616D01*
X82512297Y-81695619D01*
X82444714Y-81903623D01*
X82410500Y-82119638D01*
X80500500Y-82119638D01*
X80500500Y-80253713D01*
X108529500Y-80253713D01*
X108529500Y-80466286D01*
X108562753Y-80676239D01*
X108628444Y-80878414D01*
X108724951Y-81067820D01*
X108849890Y-81239786D01*
X109000213Y-81390109D01*
X109172179Y-81515048D01*
X109172181Y-81515049D01*
X109172184Y-81515051D01*
X109361588Y-81611557D01*
X109563757Y-81677246D01*
X109773713Y-81710500D01*
X109773714Y-81710500D01*
X109986286Y-81710500D01*
X109986287Y-81710500D01*
X110196243Y-81677246D01*
X110398412Y-81611557D01*
X110587816Y-81515051D01*
X110642985Y-81474969D01*
X110759786Y-81390109D01*
X110759788Y-81390106D01*
X110759792Y-81390104D01*
X110910104Y-81239792D01*
X110910106Y-81239788D01*
X110910109Y-81239786D01*
X111035048Y-81067820D01*
X111035047Y-81067820D01*
X111035051Y-81067816D01*
X111131557Y-80878412D01*
X111197246Y-80676243D01*
X111230500Y-80466287D01*
X111230500Y-80253713D01*
X116149500Y-80253713D01*
X116149500Y-80466286D01*
X116182753Y-80676239D01*
X116248444Y-80878414D01*
X116344951Y-81067820D01*
X116469890Y-81239786D01*
X116620213Y-81390109D01*
X116792179Y-81515048D01*
X116792181Y-81515049D01*
X116792184Y-81515051D01*
X116981588Y-81611557D01*
X117183757Y-81677246D01*
X117393713Y-81710500D01*
X117393714Y-81710500D01*
X117606286Y-81710500D01*
X117606287Y-81710500D01*
X117816243Y-81677246D01*
X118018412Y-81611557D01*
X118207816Y-81515051D01*
X118262985Y-81474969D01*
X118379786Y-81390109D01*
X118379788Y-81390106D01*
X118379792Y-81390104D01*
X118530104Y-81239792D01*
X118530106Y-81239788D01*
X118530109Y-81239786D01*
X118655048Y-81067820D01*
X118655047Y-81067820D01*
X118655051Y-81067816D01*
X118751557Y-80878412D01*
X118817246Y-80676243D01*
X118850500Y-80466287D01*
X118850500Y-80253713D01*
X118817246Y-80043757D01*
X118751557Y-79841588D01*
X118655051Y-79652184D01*
X118655049Y-79652181D01*
X118655048Y-79652179D01*
X118530109Y-79480213D01*
X118379786Y-79329890D01*
X118207820Y-79204951D01*
X118018414Y-79108444D01*
X118018413Y-79108443D01*
X118018412Y-79108443D01*
X117816243Y-79042754D01*
X117816241Y-79042753D01*
X117816240Y-79042753D01*
X117654957Y-79017208D01*
X117606287Y-79009500D01*
X117393713Y-79009500D01*
X117345042Y-79017208D01*
X117183760Y-79042753D01*
X116981585Y-79108444D01*
X116792179Y-79204951D01*
X116620213Y-79329890D01*
X116469890Y-79480213D01*
X116344951Y-79652179D01*
X116248444Y-79841585D01*
X116182753Y-80043760D01*
X116149500Y-80253713D01*
X111230500Y-80253713D01*
X111197246Y-80043757D01*
X111131557Y-79841588D01*
X111035051Y-79652184D01*
X111035049Y-79652181D01*
X111035048Y-79652179D01*
X110910109Y-79480213D01*
X110759786Y-79329890D01*
X110587820Y-79204951D01*
X110398414Y-79108444D01*
X110398413Y-79108443D01*
X110398412Y-79108443D01*
X110196243Y-79042754D01*
X110196241Y-79042753D01*
X110196240Y-79042753D01*
X110034957Y-79017208D01*
X109986287Y-79009500D01*
X109773713Y-79009500D01*
X109725042Y-79017208D01*
X109563760Y-79042753D01*
X109361585Y-79108444D01*
X109172179Y-79204951D01*
X109000213Y-79329890D01*
X108849890Y-79480213D01*
X108724951Y-79652179D01*
X108628444Y-79841585D01*
X108562753Y-80043760D01*
X108529500Y-80253713D01*
X80500500Y-80253713D01*
X80500500Y-77811995D01*
X102889500Y-77811995D01*
X102889500Y-78048004D01*
X102889501Y-78048020D01*
X102920306Y-78282010D01*
X102981394Y-78509993D01*
X103071714Y-78728045D01*
X103071719Y-78728056D01*
X103142677Y-78850957D01*
X103189727Y-78932450D01*
X103189729Y-78932453D01*
X103189730Y-78932454D01*
X103333406Y-79119697D01*
X103333412Y-79119704D01*
X103500295Y-79286587D01*
X103500301Y-79286592D01*
X103687550Y-79430273D01*
X103774049Y-79480213D01*
X103891943Y-79548280D01*
X103891948Y-79548282D01*
X103891951Y-79548284D01*
X104110007Y-79638606D01*
X104337986Y-79699693D01*
X104571989Y-79730500D01*
X104571996Y-79730500D01*
X104808004Y-79730500D01*
X104808011Y-79730500D01*
X105042014Y-79699693D01*
X105269993Y-79638606D01*
X105488049Y-79548284D01*
X105692450Y-79430273D01*
X105879699Y-79286592D01*
X106046592Y-79119699D01*
X106190273Y-78932450D01*
X106308284Y-78728049D01*
X106398606Y-78509993D01*
X106459693Y-78282014D01*
X106490500Y-78048011D01*
X106490500Y-77811989D01*
X106459693Y-77577986D01*
X106398606Y-77350007D01*
X106308284Y-77131951D01*
X106308282Y-77131948D01*
X106308280Y-77131943D01*
X106266118Y-77058918D01*
X106190273Y-76927550D01*
X106046592Y-76740301D01*
X106046587Y-76740295D01*
X105879704Y-76573412D01*
X105879697Y-76573406D01*
X105692454Y-76429730D01*
X105692453Y-76429729D01*
X105692450Y-76429727D01*
X105610957Y-76382677D01*
X105488056Y-76311719D01*
X105488045Y-76311714D01*
X105269993Y-76221394D01*
X105042010Y-76160306D01*
X104808020Y-76129501D01*
X104808017Y-76129500D01*
X104808011Y-76129500D01*
X104571989Y-76129500D01*
X104571983Y-76129500D01*
X104571979Y-76129501D01*
X104337989Y-76160306D01*
X104110006Y-76221394D01*
X103891954Y-76311714D01*
X103891943Y-76311719D01*
X103687545Y-76429730D01*
X103500302Y-76573406D01*
X103500295Y-76573412D01*
X103333412Y-76740295D01*
X103333406Y-76740302D01*
X103189730Y-76927545D01*
X103071719Y-77131943D01*
X103071714Y-77131954D01*
X102981394Y-77350006D01*
X102920306Y-77577989D01*
X102889501Y-77811979D01*
X102889500Y-77811995D01*
X80500500Y-77811995D01*
X80500500Y-68792378D01*
X121239500Y-68792378D01*
X121239500Y-69067621D01*
X121270315Y-69341108D01*
X121270317Y-69341124D01*
X121331561Y-69609453D01*
X121331565Y-69609465D01*
X121422467Y-69869246D01*
X121541884Y-70117218D01*
X121541886Y-70117221D01*
X121688319Y-70350268D01*
X121859925Y-70565455D01*
X122054545Y-70760075D01*
X122269732Y-70931681D01*
X122502779Y-71078114D01*
X122750757Y-71197534D01*
X122945865Y-71265805D01*
X123010534Y-71288434D01*
X123010546Y-71288438D01*
X123278879Y-71349683D01*
X123552378Y-71380499D01*
X123552379Y-71380500D01*
X123552383Y-71380500D01*
X123827621Y-71380500D01*
X123827621Y-71380499D01*
X124101121Y-71349683D01*
X124369454Y-71288438D01*
X124629243Y-71197534D01*
X124877221Y-71078114D01*
X125110268Y-70931681D01*
X125325455Y-70760075D01*
X125520075Y-70565455D01*
X125691681Y-70350268D01*
X125838114Y-70117221D01*
X125957534Y-69869243D01*
X126048438Y-69609454D01*
X126109683Y-69341121D01*
X126140500Y-69067617D01*
X126140500Y-68792383D01*
X126109683Y-68518879D01*
X126048438Y-68250546D01*
X125957534Y-67990757D01*
X125838114Y-67742779D01*
X125691681Y-67509732D01*
X125520075Y-67294545D01*
X125325455Y-67099925D01*
X125110268Y-66928319D01*
X124877221Y-66781886D01*
X124877218Y-66781884D01*
X124629246Y-66662467D01*
X124369465Y-66571565D01*
X124369453Y-66571561D01*
X124101124Y-66510317D01*
X124101108Y-66510315D01*
X123827621Y-66479500D01*
X123827617Y-66479500D01*
X123552383Y-66479500D01*
X123552379Y-66479500D01*
X123278891Y-66510315D01*
X123278875Y-66510317D01*
X123010546Y-66571561D01*
X123010534Y-66571565D01*
X122750753Y-66662467D01*
X122502781Y-66781884D01*
X122269733Y-66928318D01*
X122054545Y-67099924D01*
X121859924Y-67294545D01*
X121688318Y-67509733D01*
X121541884Y-67742781D01*
X121422467Y-67990753D01*
X121331565Y-68250534D01*
X121331561Y-68250546D01*
X121270317Y-68518875D01*
X121270315Y-68518891D01*
X121239500Y-68792378D01*
X80500500Y-68792378D01*
X80500500Y-65317648D01*
X131899500Y-65317648D01*
X131899500Y-65522351D01*
X131931522Y-65724534D01*
X131994781Y-65919223D01*
X132087715Y-66101613D01*
X132208028Y-66267213D01*
X132352786Y-66411971D01*
X132507749Y-66524556D01*
X132518390Y-66532287D01*
X132609840Y-66578883D01*
X132611080Y-66579515D01*
X132661876Y-66627490D01*
X132678671Y-66695311D01*
X132656134Y-66761446D01*
X132611080Y-66800485D01*
X132518386Y-66847715D01*
X132352786Y-66968028D01*
X132208028Y-67112786D01*
X132087715Y-67278386D01*
X131994781Y-67460776D01*
X131931522Y-67655465D01*
X131899500Y-67857648D01*
X131899500Y-68062351D01*
X131931522Y-68264534D01*
X131994781Y-68459223D01*
X132087715Y-68641613D01*
X132208028Y-68807213D01*
X132352786Y-68951971D01*
X132507749Y-69064556D01*
X132518390Y-69072287D01*
X132609840Y-69118883D01*
X132611080Y-69119515D01*
X132661876Y-69167490D01*
X132678671Y-69235311D01*
X132656134Y-69301446D01*
X132611080Y-69340485D01*
X132518386Y-69387715D01*
X132352786Y-69508028D01*
X132208028Y-69652786D01*
X132087715Y-69818386D01*
X131994781Y-70000776D01*
X131931522Y-70195465D01*
X131899500Y-70397648D01*
X131899500Y-70602351D01*
X131931522Y-70804534D01*
X131994781Y-70999223D01*
X132087715Y-71181613D01*
X132208028Y-71347213D01*
X132352786Y-71491971D01*
X132507749Y-71604556D01*
X132518390Y-71612287D01*
X132634607Y-71671503D01*
X132700776Y-71705218D01*
X132700778Y-71705218D01*
X132700781Y-71705220D01*
X132805137Y-71739127D01*
X132895465Y-71768477D01*
X132996557Y-71784488D01*
X133097648Y-71800500D01*
X133097649Y-71800500D01*
X133702351Y-71800500D01*
X133702352Y-71800500D01*
X133904534Y-71768477D01*
X134099219Y-71705220D01*
X134281610Y-71612287D01*
X134374590Y-71544732D01*
X134447213Y-71491971D01*
X134447215Y-71491968D01*
X134447219Y-71491966D01*
X134591966Y-71347219D01*
X134591968Y-71347215D01*
X134591971Y-71347213D01*
X134644732Y-71274590D01*
X134712287Y-71181610D01*
X134805220Y-70999219D01*
X134868477Y-70804534D01*
X134900500Y-70602352D01*
X134900500Y-70397648D01*
X134868477Y-70195466D01*
X134805220Y-70000781D01*
X134805218Y-70000778D01*
X134805218Y-70000776D01*
X134738199Y-69869246D01*
X134712287Y-69818390D01*
X134704556Y-69807749D01*
X134591971Y-69652786D01*
X134447213Y-69508028D01*
X134281614Y-69387715D01*
X134275006Y-69384348D01*
X134188917Y-69340483D01*
X134138123Y-69292511D01*
X134121328Y-69224690D01*
X134143865Y-69158555D01*
X134188917Y-69119516D01*
X134281610Y-69072287D01*
X134320921Y-69043726D01*
X134447213Y-68951971D01*
X134447215Y-68951968D01*
X134447219Y-68951966D01*
X134591966Y-68807219D01*
X134591968Y-68807215D01*
X134591971Y-68807213D01*
X134644732Y-68734590D01*
X134712287Y-68641610D01*
X134805220Y-68459219D01*
X134868477Y-68264534D01*
X134900500Y-68062352D01*
X134900500Y-67857648D01*
X134868477Y-67655466D01*
X134805220Y-67460781D01*
X134805218Y-67460778D01*
X134805218Y-67460776D01*
X134720518Y-67294545D01*
X134712287Y-67278390D01*
X134704556Y-67267749D01*
X134591971Y-67112786D01*
X134447213Y-66968028D01*
X134281614Y-66847715D01*
X134275006Y-66844348D01*
X134188917Y-66800483D01*
X134138123Y-66752511D01*
X134121328Y-66684690D01*
X134143865Y-66618555D01*
X134188917Y-66579516D01*
X134281610Y-66532287D01*
X134354266Y-66479500D01*
X134447213Y-66411971D01*
X134447215Y-66411968D01*
X134447219Y-66411966D01*
X134591966Y-66267219D01*
X134591968Y-66267215D01*
X134591971Y-66267213D01*
X134644732Y-66194590D01*
X134712287Y-66101610D01*
X134805220Y-65919219D01*
X134868477Y-65724534D01*
X134900500Y-65522352D01*
X134900500Y-65317648D01*
X134868477Y-65115466D01*
X134805220Y-64920781D01*
X134805218Y-64920778D01*
X134805218Y-64920776D01*
X134771503Y-64854607D01*
X134712287Y-64738390D01*
X134704556Y-64727749D01*
X134591971Y-64572786D01*
X134447213Y-64428028D01*
X134281611Y-64307713D01*
X134188369Y-64260203D01*
X134137574Y-64212229D01*
X134120779Y-64144407D01*
X134143317Y-64078273D01*
X134188371Y-64039234D01*
X134281347Y-63991861D01*
X134446894Y-63871582D01*
X134446895Y-63871582D01*
X134591582Y-63726895D01*
X134591582Y-63726894D01*
X134711859Y-63561349D01*
X134804755Y-63379029D01*
X134867990Y-63184413D01*
X134876609Y-63130000D01*
X133833012Y-63130000D01*
X133865925Y-63072993D01*
X133900000Y-62945826D01*
X133900000Y-62814174D01*
X133865925Y-62687007D01*
X133833012Y-62630000D01*
X134876609Y-62630000D01*
X134867990Y-62575586D01*
X134804755Y-62380970D01*
X134711859Y-62198650D01*
X134591582Y-62033105D01*
X134591582Y-62033104D01*
X134446895Y-61888417D01*
X134281349Y-61768140D01*
X134099031Y-61675244D01*
X133904417Y-61612009D01*
X133702317Y-61580000D01*
X133650000Y-61580000D01*
X133650000Y-62446988D01*
X133592993Y-62414075D01*
X133465826Y-62380000D01*
X133334174Y-62380000D01*
X133207007Y-62414075D01*
X133150000Y-62446988D01*
X133150000Y-61580000D01*
X133097683Y-61580000D01*
X132895582Y-61612009D01*
X132700968Y-61675244D01*
X132518650Y-61768140D01*
X132353105Y-61888417D01*
X132353104Y-61888417D01*
X132208417Y-62033104D01*
X132208417Y-62033105D01*
X132088140Y-62198650D01*
X131995244Y-62380970D01*
X131932009Y-62575586D01*
X131923391Y-62630000D01*
X132966988Y-62630000D01*
X132934075Y-62687007D01*
X132900000Y-62814174D01*
X132900000Y-62945826D01*
X132934075Y-63072993D01*
X132966988Y-63130000D01*
X131923391Y-63130000D01*
X131932009Y-63184413D01*
X131995244Y-63379029D01*
X132088140Y-63561349D01*
X132208417Y-63726894D01*
X132208417Y-63726895D01*
X132353104Y-63871582D01*
X132518652Y-63991861D01*
X132611628Y-64039234D01*
X132662425Y-64087208D01*
X132679220Y-64155029D01*
X132656683Y-64221164D01*
X132611630Y-64260203D01*
X132518388Y-64307713D01*
X132352786Y-64428028D01*
X132208028Y-64572786D01*
X132087715Y-64738386D01*
X131994781Y-64920776D01*
X131931522Y-65115465D01*
X131899500Y-65317648D01*
X80500500Y-65317648D01*
X80500500Y-57393713D01*
X108529500Y-57393713D01*
X108529500Y-57606286D01*
X108562753Y-57816239D01*
X108628444Y-58018414D01*
X108724951Y-58207820D01*
X108849890Y-58379786D01*
X109000213Y-58530109D01*
X109172179Y-58655048D01*
X109172181Y-58655049D01*
X109172184Y-58655051D01*
X109361588Y-58751557D01*
X109563757Y-58817246D01*
X109773713Y-58850500D01*
X109773714Y-58850500D01*
X109986286Y-58850500D01*
X109986287Y-58850500D01*
X110196243Y-58817246D01*
X110398412Y-58751557D01*
X110587816Y-58655051D01*
X110609789Y-58639086D01*
X110759786Y-58530109D01*
X110759788Y-58530106D01*
X110759792Y-58530104D01*
X110910104Y-58379792D01*
X110910106Y-58379788D01*
X110910109Y-58379786D01*
X111035048Y-58207820D01*
X111035047Y-58207820D01*
X111035051Y-58207816D01*
X111131557Y-58018412D01*
X111197246Y-57816243D01*
X111230500Y-57606287D01*
X111230500Y-57393713D01*
X116149500Y-57393713D01*
X116149500Y-57606286D01*
X116182753Y-57816239D01*
X116248444Y-58018414D01*
X116344951Y-58207820D01*
X116469890Y-58379786D01*
X116620213Y-58530109D01*
X116792179Y-58655048D01*
X116792181Y-58655049D01*
X116792184Y-58655051D01*
X116981588Y-58751557D01*
X117183757Y-58817246D01*
X117393713Y-58850500D01*
X117393714Y-58850500D01*
X117606286Y-58850500D01*
X117606287Y-58850500D01*
X117816243Y-58817246D01*
X118018412Y-58751557D01*
X118207816Y-58655051D01*
X118229789Y-58639086D01*
X118379786Y-58530109D01*
X118379788Y-58530106D01*
X118379792Y-58530104D01*
X118530104Y-58379792D01*
X118530106Y-58379788D01*
X118530109Y-58379786D01*
X118655048Y-58207820D01*
X118655047Y-58207820D01*
X118655051Y-58207816D01*
X118751557Y-58018412D01*
X118817246Y-57816243D01*
X118850500Y-57606287D01*
X118850500Y-57393713D01*
X118817246Y-57183757D01*
X118751557Y-56981588D01*
X118655051Y-56792184D01*
X118655049Y-56792181D01*
X118655048Y-56792179D01*
X118530109Y-56620213D01*
X118379786Y-56469890D01*
X118207820Y-56344951D01*
X118018414Y-56248444D01*
X118018413Y-56248443D01*
X118018412Y-56248443D01*
X117816243Y-56182754D01*
X117816241Y-56182753D01*
X117816240Y-56182753D01*
X117654957Y-56157208D01*
X117606287Y-56149500D01*
X117393713Y-56149500D01*
X117345042Y-56157208D01*
X117183760Y-56182753D01*
X116981585Y-56248444D01*
X116792179Y-56344951D01*
X116620213Y-56469890D01*
X116469890Y-56620213D01*
X116344951Y-56792179D01*
X116248444Y-56981585D01*
X116182753Y-57183760D01*
X116149500Y-57393713D01*
X111230500Y-57393713D01*
X111197246Y-57183757D01*
X111131557Y-56981588D01*
X111035051Y-56792184D01*
X111035049Y-56792181D01*
X111035048Y-56792179D01*
X110910109Y-56620213D01*
X110759786Y-56469890D01*
X110587820Y-56344951D01*
X110398414Y-56248444D01*
X110398413Y-56248443D01*
X110398412Y-56248443D01*
X110196243Y-56182754D01*
X110196241Y-56182753D01*
X110196240Y-56182753D01*
X110034957Y-56157208D01*
X109986287Y-56149500D01*
X109773713Y-56149500D01*
X109725042Y-56157208D01*
X109563760Y-56182753D01*
X109361585Y-56248444D01*
X109172179Y-56344951D01*
X109000213Y-56469890D01*
X108849890Y-56620213D01*
X108724951Y-56792179D01*
X108628444Y-56981585D01*
X108562753Y-57183760D01*
X108529500Y-57393713D01*
X80500500Y-57393713D01*
X80500500Y-55315837D01*
X112239500Y-55315837D01*
X112239500Y-55544162D01*
X112275215Y-55769660D01*
X112345770Y-55986803D01*
X112428669Y-56149500D01*
X112449421Y-56190228D01*
X112583621Y-56374937D01*
X112745063Y-56536379D01*
X112929772Y-56670579D01*
X113025884Y-56719550D01*
X113133196Y-56774229D01*
X113133198Y-56774229D01*
X113133201Y-56774231D01*
X113249592Y-56812049D01*
X113350339Y-56844784D01*
X113575838Y-56880500D01*
X113575843Y-56880500D01*
X113804162Y-56880500D01*
X114029660Y-56844784D01*
X114246799Y-56774231D01*
X114450228Y-56670579D01*
X114634937Y-56536379D01*
X114796379Y-56374937D01*
X114930579Y-56190228D01*
X115034231Y-55986799D01*
X115104784Y-55769660D01*
X115115241Y-55703638D01*
X115140500Y-55544162D01*
X115140500Y-55315837D01*
X115104784Y-55090339D01*
X115034229Y-54873196D01*
X114930578Y-54669771D01*
X114796379Y-54485063D01*
X114634937Y-54323621D01*
X114450228Y-54189421D01*
X114246803Y-54085770D01*
X114029660Y-54015215D01*
X113804162Y-53979500D01*
X113804157Y-53979500D01*
X113575843Y-53979500D01*
X113575838Y-53979500D01*
X113350339Y-54015215D01*
X113133196Y-54085770D01*
X112929771Y-54189421D01*
X112745061Y-54323622D01*
X112583622Y-54485061D01*
X112449421Y-54669771D01*
X112345770Y-54873196D01*
X112275215Y-55090339D01*
X112239500Y-55315837D01*
X80500500Y-55315837D01*
X80500500Y-52506961D01*
X80501280Y-52493077D01*
X80501280Y-52493076D01*
X80511460Y-52402729D01*
X80517635Y-52375670D01*
X80545353Y-52296456D01*
X80557396Y-52271450D01*
X80602046Y-52200389D01*
X80619351Y-52178690D01*
X80678690Y-52119351D01*
X80700389Y-52102046D01*
X80771450Y-52057396D01*
X80796456Y-52045353D01*
X80875670Y-52017635D01*
X80902733Y-52011459D01*
X80965419Y-52004396D01*
X80993079Y-52001280D01*
X81006962Y-52000500D01*
X81065892Y-52000500D01*
X161934108Y-52000500D01*
X161993038Y-52000500D01*
X162006922Y-52001280D01*
G37*
%TD.AperFunction*%
%TD*%
M02*
