M48
; DRILL file {KiCad 9.0.7} date 2026-02-02T22:52:13-0800
; FORMAT={-:-/ absolute / metric / decimal}
; #@! TF.CreationDate,2026-02-02T22:52:13-08:00
; #@! TF.GenerationSoftware,Kicad,Pcbnew,9.0.7
; #@! TF.FileFunction,Plated,1,2,PTH
FMAT,2
METRIC
; #@! TA.AperFunction,Plated,PTH,ComponentDrill
T1C0.850
; #@! TA.AperFunction,Plated,PTH,ComponentDrill
T2C1.000
; #@! TA.AperFunction,Plated,PTH,ComponentDrill
T3C1.016
%
G90
G05
T1
X109.88Y-57.5
X109.88Y-80.36
X117.5Y-57.5
X117.5Y-80.36
T2
X117.975Y-93.0
X117.975Y-95.54
X123.975Y-93.0
X123.975Y-95.54
X130.0Y-93.0
X130.0Y-95.54
X133.4Y-62.88
X133.4Y-65.42
X133.4Y-67.96
X133.4Y-70.5
X138.5Y-88.92
X138.5Y-91.46
X138.5Y-94.0
X138.5Y-96.54
X147.975Y-93.525
X148.975Y-88.025
X150.515Y-93.525
X151.515Y-88.025
X153.055Y-93.525
T3
X83.8Y-83.88
X83.8Y-99.12
X86.34Y-83.88
X86.34Y-99.12
X88.88Y-83.88
X88.88Y-99.12
X91.42Y-83.88
X91.42Y-99.12
X93.96Y-83.88
X93.96Y-99.12
X96.5Y-83.88
X96.5Y-99.12
X99.04Y-83.88
X99.04Y-99.12
X109.2Y-88.96
X109.2Y-94.04
M30
