%TF.GenerationSoftware,KiCad,Pcbnew,9.0.7*%
%TF.CreationDate,2026-02-02T22:52:16-08:00*%
%TF.ProjectId,TECHIN514 System Architecture Graph Lewis Liu,54454348-494e-4353-9134-205379737465,rev?*%
%TF.SameCoordinates,Original*%
%TF.FileFunction,Copper,L1,Top*%
%TF.FilePolarity,Positive*%
%FSLAX46Y46*%
G04 Gerber Fmt 4.6, Leading zero omitted, Abs format (unit mm)*
G04 Created by KiCad (PCBNEW 9.0.7) date 2026-02-02 22:52:16*
%MOMM*%
%LPD*%
G01*
G04 APERTURE LIST*
G04 Aperture macros list*
%AMRoundRect*
0 Rectangle with rounded corners*
0 $1 Rounding radius*
0 $2 $3 $4 $5 $6 $7 $8 $9 X,Y pos of 4 corners*
0 Add a 4 corners polygon primitive as box body*
4,1,4,$2,$3,$4,$5,$6,$7,$8,$9,$2,$3,0*
0 Add four circle primitives for the rounded corners*
1,1,$1+$1,$2,$3*
1,1,$1+$1,$4,$5*
1,1,$1+$1,$6,$7*
1,1,$1+$1,$8,$9*
0 Add four rect primitives between the rounded corners*
20,1,$1+$1,$2,$3,$4,$5,0*
20,1,$1+$1,$4,$5,$6,$7,0*
20,1,$1+$1,$6,$7,$8,$9,0*
20,1,$1+$1,$8,$9,$2,$3,0*%
G04 Aperture macros list end*
%TA.AperFunction,SMDPad,CuDef*%
%ADD10RoundRect,0.250000X-0.325000X-0.450000X0.325000X-0.450000X0.325000X0.450000X-0.325000X0.450000X0*%
%TD*%
%TA.AperFunction,SMDPad,CuDef*%
%ADD11RoundRect,0.250000X-0.350000X-0.450000X0.350000X-0.450000X0.350000X0.450000X-0.350000X0.450000X0*%
%TD*%
%TA.AperFunction,ComponentPad*%
%ADD12O,2.000000X1.600000*%
%TD*%
%TA.AperFunction,ComponentPad*%
%ADD13C,1.700000*%
%TD*%
%TA.AperFunction,ComponentPad*%
%ADD14R,1.700000X1.700000*%
%TD*%
%TA.AperFunction,ComponentPad*%
%ADD15O,1.778000X3.556000*%
%TD*%
%TA.AperFunction,ComponentPad*%
%ADD16C,1.905000*%
%TD*%
%TA.AperFunction,Conductor*%
%ADD17C,0.254000*%
%TD*%
%TA.AperFunction,Conductor*%
%ADD18C,0.500000*%
%TD*%
G04 APERTURE END LIST*
D10*
%TO.P,D2,1,K*%
%TO.N,Net-(D2-K)*%
X146730000Y-99045000D03*
%TO.P,D2,2,A*%
%TO.N,/VCC*%
X148780000Y-99045000D03*
%TD*%
D11*
%TO.P,R2,1*%
%TO.N,Net-(D2-K)*%
X151500000Y-99000000D03*
%TO.P,R2,2*%
%TO.N,GND*%
X153500000Y-99000000D03*
%TD*%
D12*
%TO.P,Brd1,1,GND*%
%TO.N,GND*%
X133400000Y-62880000D03*
%TO.P,Brd1,2,VCC*%
%TO.N,+3.3V*%
X133400000Y-65420000D03*
%TO.P,Brd1,3,SCL*%
%TO.N,Net-(Brd1-SCL)*%
X133400000Y-67960000D03*
%TO.P,Brd1,4,SDA*%
%TO.N,Net-(Brd1-SDA)*%
X133400000Y-70500000D03*
%TD*%
D13*
%TO.P,M1,1*%
%TO.N,Net-(U4-GPIO2_A1_D1)*%
X117500000Y-57500000D03*
%TO.P,M1,2,-*%
%TO.N,Net-(M1--)*%
X109880000Y-57500000D03*
%TO.P,M1,3*%
%TO.N,Net-(U4-GPIO3_A2_D2)*%
X109880000Y-80360000D03*
%TO.P,M1,4*%
%TO.N,Net-(U4-GPIO4_A3_D3)*%
X117500000Y-80360000D03*
%TD*%
D14*
%TO.P,BT1,1,+*%
%TO.N,/BAT*%
X148975000Y-88025000D03*
D13*
%TO.P,BT1,2,-*%
%TO.N,GND*%
X151515000Y-88025000D03*
%TD*%
D14*
%TO.P,SW2,1,1*%
%TO.N,Net-(U4-GPIO7_A8_D8_SCK)*%
X123975000Y-93000000D03*
D13*
%TO.P,SW2,2,2*%
%TO.N,+3.3V*%
X123975000Y-95540000D03*
%TD*%
D14*
%TO.P,SW1,1,1*%
%TO.N,Net-(U4-GPIO9_A10_D10_COPI)*%
X130000000Y-93000000D03*
D13*
%TO.P,SW1,2,2*%
%TO.N,+3.3V*%
X130000000Y-95540000D03*
%TD*%
D14*
%TO.P,SW3,1,1*%
%TO.N,Net-(U4-GPIO8_A9_D9_CIPO)*%
X117975000Y-93000000D03*
D13*
%TO.P,SW3,2,2*%
%TO.N,+3.3V*%
X117975000Y-95540000D03*
%TD*%
D15*
%TO.P,U4,1,GPIO1_A0_D0*%
%TO.N,Net-(M1--)*%
X83800000Y-83118000D03*
%TO.P,U4,2,GPIO2_A1_D1*%
%TO.N,Net-(U4-GPIO2_A1_D1)*%
X86340000Y-83118000D03*
%TO.P,U4,3,GPIO3_A2_D2*%
%TO.N,Net-(U4-GPIO3_A2_D2)*%
X88880000Y-83118000D03*
%TO.P,U4,4,GPIO4_A3_D3*%
%TO.N,Net-(U4-GPIO4_A3_D3)*%
X91420000Y-83118000D03*
%TO.P,U4,5,GPIO4_A3_D3_SDA*%
%TO.N,Net-(Brd1-SDA)*%
X93960000Y-83118000D03*
%TO.P,U4,6,GPIO6_A5_D5_SCL*%
%TO.N,Net-(Brd1-SCL)*%
X96500000Y-83118000D03*
%TO.P,U4,7,GPIO43_TX_D6*%
%TO.N,Net-(D1-DIN)*%
X99040000Y-83118000D03*
%TO.P,U4,8,GPIO44_D7_RX*%
%TO.N,unconnected-(U4-GPIO44_D7_RX-Pad8)*%
X99040000Y-99882000D03*
%TO.P,U4,9,GPIO7_A8_D8_SCK*%
%TO.N,Net-(U4-GPIO7_A8_D8_SCK)*%
X96500000Y-99882000D03*
%TO.P,U4,10,GPIO8_A9_D9_CIPO*%
%TO.N,Net-(U4-GPIO8_A9_D9_CIPO)*%
X93960000Y-99882000D03*
%TO.P,U4,11,GPIO9_A10_D10_COPI*%
%TO.N,Net-(U4-GPIO9_A10_D10_COPI)*%
X91420000Y-99882000D03*
%TO.P,U4,12,3V3*%
%TO.N,+3.3V*%
X88880000Y-99882000D03*
%TO.P,U4,13,GND*%
%TO.N,GND*%
X86340000Y-99882000D03*
%TO.P,U4,14,5V*%
%TO.N,/VCC*%
X83800000Y-99882000D03*
D16*
%TO.P,U4,15,+BATT*%
%TO.N,unconnected-(U4-+BATT-Pad15)*%
X109200000Y-88960000D03*
%TO.P,U4,16,-BATT*%
%TO.N,unconnected-(U4--BATT-Pad16)*%
X109200000Y-94040000D03*
%TD*%
D14*
%TO.P,SW4,1,A*%
%TO.N,unconnected-(SW4-A-Pad1)*%
X147975000Y-93525000D03*
D13*
%TO.P,SW4,2,B*%
%TO.N,/BAT*%
X150515000Y-93525000D03*
%TO.P,SW4,3,C*%
%TO.N,/VCC*%
X153055000Y-93525000D03*
%TD*%
D14*
%TO.P,D1,1,DOUT*%
%TO.N,unconnected-(D1-DOUT-Pad1)*%
X138500000Y-96540000D03*
D13*
%TO.P,D1,2,GND*%
%TO.N,GND*%
X138500000Y-94000000D03*
%TO.P,D1,3,VDD*%
%TO.N,+3.3V*%
X138500000Y-91460000D03*
%TO.P,D1,4,DIN*%
%TO.N,Net-(D1-DIN)*%
X138500000Y-88920000D03*
%TD*%
D17*
%TO.N,Net-(Brd1-SCL)*%
X116082000Y-85278000D02*
X97898000Y-85278000D01*
X97898000Y-85278000D02*
X96500000Y-83880000D01*
X133400000Y-67960000D02*
X116082000Y-85278000D01*
%TO.N,Net-(Brd1-SDA)*%
X95867000Y-85787000D02*
X93960000Y-83880000D01*
X133400000Y-70500000D02*
X118113000Y-85787000D01*
X118113000Y-85787000D02*
X95867000Y-85787000D01*
D18*
%TO.N,GND*%
X154410000Y-98090000D02*
X153500000Y-99000000D01*
X151515000Y-88025000D02*
X154410000Y-90920000D01*
X154410000Y-90920000D02*
X154410000Y-98090000D01*
%TO.N,+3.3V*%
X117975000Y-95540000D02*
X110841000Y-102674000D01*
X134500000Y-65420000D02*
X133400000Y-65420000D01*
X117975000Y-95540000D02*
X123975000Y-95540000D01*
X134080000Y-91460000D02*
X138500000Y-91460000D01*
X138500000Y-91460000D02*
X139855000Y-90105000D01*
X130000000Y-95540000D02*
X134080000Y-91460000D01*
X123975000Y-95540000D02*
X130000000Y-95540000D01*
X139855000Y-70775000D02*
X134500000Y-65420000D01*
X139855000Y-90105000D02*
X139855000Y-70775000D01*
X110841000Y-102674000D02*
X91351586Y-102674000D01*
X88880000Y-100202414D02*
X88880000Y-99120000D01*
X91351586Y-102674000D02*
X88880000Y-100202414D01*
D17*
%TO.N,Net-(D1-DIN)*%
X99168000Y-84008000D02*
X99040000Y-83880000D01*
X134089600Y-66778000D02*
X131803688Y-66778000D01*
X115594312Y-84008000D02*
X99168000Y-84008000D01*
X118732000Y-80870312D02*
X115594312Y-84008000D01*
X138500000Y-71188400D02*
X134089600Y-66778000D01*
X138500000Y-88920000D02*
X138500000Y-71188400D01*
X118732000Y-79849688D02*
X118732000Y-80870312D01*
X131803688Y-66778000D02*
X118732000Y-79849688D01*
%TO.N,Net-(D2-K)*%
X150000000Y-100500000D02*
X148185000Y-100500000D01*
X148185000Y-100500000D02*
X146730000Y-99045000D01*
X151500000Y-99000000D02*
X150000000Y-100500000D01*
%TO.N,Net-(M1--)*%
X109880000Y-57500000D02*
X108677919Y-57500000D01*
X83800000Y-82377919D02*
X83800000Y-83880000D01*
X108677919Y-57500000D02*
X83800000Y-82377919D01*
%TO.N,Net-(U4-GPIO3_A2_D2)*%
X91491535Y-80360000D02*
X88880000Y-82971535D01*
X88880000Y-82971535D02*
X88880000Y-83880000D01*
X109880000Y-80360000D02*
X91491535Y-80360000D01*
%TO.N,Net-(U4-GPIO4_A3_D3)*%
X117500000Y-80360000D02*
X111622312Y-80360000D01*
X110390312Y-81592000D02*
X100200465Y-81592000D01*
X91420000Y-82971535D02*
X91420000Y-83880000D01*
X100200465Y-81592000D02*
X99566465Y-80958000D01*
X99566465Y-80958000D02*
X93433535Y-80958000D01*
X93433535Y-80958000D02*
X91420000Y-82971535D01*
X111622312Y-80360000D02*
X110390312Y-81592000D01*
%TO.N,Net-(U4-GPIO2_A1_D1)*%
X117500000Y-57500000D02*
X111811535Y-57500000D01*
X86340000Y-82971535D02*
X86340000Y-83880000D01*
X111811535Y-57500000D02*
X86340000Y-82971535D01*
%TO.N,Net-(U4-GPIO9_A10_D10_COPI)*%
X98772000Y-91768000D02*
X91420000Y-99120000D01*
X130000000Y-93000000D02*
X128768000Y-91768000D01*
X128768000Y-91768000D02*
X98772000Y-91768000D01*
%TO.N,Net-(U4-GPIO7_A8_D8_SCK)*%
X122743000Y-94232000D02*
X117462834Y-94232000D01*
X109652834Y-102042000D02*
X98513535Y-102042000D01*
X117462834Y-94232000D02*
X109652834Y-102042000D01*
X96500000Y-100028465D02*
X96500000Y-99120000D01*
X123975000Y-93000000D02*
X122743000Y-94232000D01*
X98513535Y-102042000D02*
X96500000Y-100028465D01*
%TO.N,Net-(U4-GPIO8_A9_D9_CIPO)*%
X113253000Y-97722000D02*
X95358000Y-97722000D01*
X117975000Y-93000000D02*
X113253000Y-97722000D01*
X95358000Y-97722000D02*
X93960000Y-99120000D01*
D18*
%TO.N,/BAT*%
X150515000Y-93525000D02*
X148975000Y-91985000D01*
X148975000Y-91985000D02*
X148975000Y-88025000D01*
%TO.N,/VCC*%
X83800000Y-99120000D02*
X83800000Y-100202414D01*
X146085342Y-97840000D02*
X147575000Y-97840000D01*
X148780000Y-97800000D02*
X153055000Y-93525000D01*
X83800000Y-100202414D02*
X87026586Y-103429000D01*
X147575000Y-97840000D02*
X148780000Y-99045000D01*
X148780000Y-99045000D02*
X148780000Y-97800000D01*
X87026586Y-103429000D02*
X140496342Y-103429000D01*
X140496342Y-103429000D02*
X146085342Y-97840000D01*
%TD*%
%TA.AperFunction,Conductor*%
%TO.N,GND*%
G36*
X86590000Y-99758000D02*
G01*
X86570315Y-99825039D01*
X86517511Y-99870794D01*
X86466000Y-99882000D01*
X86214000Y-99882000D01*
X86146961Y-99862315D01*
X86101206Y-99809511D01*
X86090000Y-99758000D01*
X86090000Y-99562251D01*
X86143919Y-99593381D01*
X86273120Y-99628000D01*
X86406880Y-99628000D01*
X86536081Y-99593381D01*
X86590000Y-99562251D01*
X86590000Y-99758000D01*
G37*
%TD.AperFunction*%
%TA.AperFunction,Conductor*%
G36*
X162006922Y-52001280D02*
G01*
X162097266Y-52011459D01*
X162124331Y-52017636D01*
X162203540Y-52045352D01*
X162228553Y-52057398D01*
X162299606Y-52102043D01*
X162321313Y-52119355D01*
X162380644Y-52178686D01*
X162397957Y-52200395D01*
X162442600Y-52271444D01*
X162454648Y-52296462D01*
X162482362Y-52375666D01*
X162488540Y-52402735D01*
X162498720Y-52493076D01*
X162499500Y-52506961D01*
X162499500Y-103993038D01*
X162498720Y-104006922D01*
X162498720Y-104006923D01*
X162488540Y-104097264D01*
X162482362Y-104124333D01*
X162454648Y-104203537D01*
X162442600Y-104228555D01*
X162397957Y-104299604D01*
X162380644Y-104321313D01*
X162321313Y-104380644D01*
X162299604Y-104397957D01*
X162228555Y-104442600D01*
X162203537Y-104454648D01*
X162124333Y-104482362D01*
X162097264Y-104488540D01*
X162017075Y-104497576D01*
X162006921Y-104498720D01*
X161993038Y-104499500D01*
X81006962Y-104499500D01*
X80993078Y-104498720D01*
X80980553Y-104497308D01*
X80902735Y-104488540D01*
X80875666Y-104482362D01*
X80796462Y-104454648D01*
X80771444Y-104442600D01*
X80700395Y-104397957D01*
X80678686Y-104380644D01*
X80619355Y-104321313D01*
X80602042Y-104299604D01*
X80557399Y-104228555D01*
X80545351Y-104203537D01*
X80536940Y-104179500D01*
X80517636Y-104124331D01*
X80511459Y-104097263D01*
X80507394Y-104061189D01*
X80501847Y-104011951D01*
X80501280Y-104006922D01*
X80500500Y-103993038D01*
X80500500Y-88845646D01*
X107747000Y-88845646D01*
X107747000Y-89074354D01*
X107753807Y-89117331D01*
X107782778Y-89300246D01*
X107782778Y-89300249D01*
X107853450Y-89517755D01*
X107853452Y-89517758D01*
X107957283Y-89721538D01*
X108091714Y-89906566D01*
X108253434Y-90068286D01*
X108438462Y-90202717D01*
X108630341Y-90300484D01*
X108642244Y-90306549D01*
X108859751Y-90377221D01*
X108859752Y-90377221D01*
X108859755Y-90377222D01*
X109085646Y-90413000D01*
X109085647Y-90413000D01*
X109314353Y-90413000D01*
X109314354Y-90413000D01*
X109540245Y-90377222D01*
X109540248Y-90377221D01*
X109540249Y-90377221D01*
X109757755Y-90306549D01*
X109757755Y-90306548D01*
X109757758Y-90306548D01*
X109961538Y-90202717D01*
X110146566Y-90068286D01*
X110308286Y-89906566D01*
X110442717Y-89721538D01*
X110546548Y-89517758D01*
X110594853Y-89369091D01*
X110617221Y-89300249D01*
X110617221Y-89300248D01*
X110617222Y-89300245D01*
X110653000Y-89074354D01*
X110653000Y-88845646D01*
X110617222Y-88619755D01*
X110617221Y-88619751D01*
X110617221Y-88619750D01*
X110546549Y-88402244D01*
X110515408Y-88341127D01*
X110442717Y-88198462D01*
X110308286Y-88013434D01*
X110146566Y-87851714D01*
X109961538Y-87717283D01*
X109957208Y-87715077D01*
X109757755Y-87613450D01*
X109540248Y-87542778D01*
X109370826Y-87515944D01*
X109314354Y-87507000D01*
X109085646Y-87507000D01*
X109010349Y-87518926D01*
X108859753Y-87542778D01*
X108859750Y-87542778D01*
X108642244Y-87613450D01*
X108438461Y-87717283D01*
X108332896Y-87793980D01*
X108253434Y-87851714D01*
X108253432Y-87851716D01*
X108253431Y-87851716D01*
X108091716Y-88013431D01*
X108091716Y-88013432D01*
X108091714Y-88013434D01*
X108083312Y-88024999D01*
X107957283Y-88198461D01*
X107853450Y-88402244D01*
X107782778Y-88619750D01*
X107782778Y-88619753D01*
X107752058Y-88813713D01*
X107747000Y-88845646D01*
X80500500Y-88845646D01*
X80500500Y-82119638D01*
X82410500Y-82119638D01*
X82410500Y-84116361D01*
X82444714Y-84332376D01*
X82512297Y-84540380D01*
X82512298Y-84540383D01*
X82611595Y-84735260D01*
X82740142Y-84912193D01*
X82894806Y-85066857D01*
X83060374Y-85187147D01*
X83071743Y-85195407D01*
X83199132Y-85260315D01*
X83266616Y-85294701D01*
X83266619Y-85294702D01*
X83337349Y-85317683D01*
X83474625Y-85362286D01*
X83574672Y-85378132D01*
X83690639Y-85396500D01*
X83690644Y-85396500D01*
X83909361Y-85396500D01*
X84014082Y-85379912D01*
X84125375Y-85362286D01*
X84333383Y-85294701D01*
X84528257Y-85195407D01*
X84627668Y-85123181D01*
X84705193Y-85066857D01*
X84705195Y-85066854D01*
X84705199Y-85066852D01*
X84859852Y-84912199D01*
X84969683Y-84761028D01*
X85025011Y-84718364D01*
X85094624Y-84712385D01*
X85156420Y-84744990D01*
X85170313Y-84761023D01*
X85280144Y-84912193D01*
X85280148Y-84912199D01*
X85434806Y-85066857D01*
X85600374Y-85187147D01*
X85611743Y-85195407D01*
X85739132Y-85260315D01*
X85806616Y-85294701D01*
X85806619Y-85294702D01*
X85877349Y-85317683D01*
X86014625Y-85362286D01*
X86114672Y-85378132D01*
X86230639Y-85396500D01*
X86230644Y-85396500D01*
X86449361Y-85396500D01*
X86554082Y-85379912D01*
X86665375Y-85362286D01*
X86873383Y-85294701D01*
X87068257Y-85195407D01*
X87167668Y-85123181D01*
X87245193Y-85066857D01*
X87245195Y-85066854D01*
X87245199Y-85066852D01*
X87399852Y-84912199D01*
X87509683Y-84761028D01*
X87565011Y-84718364D01*
X87634624Y-84712385D01*
X87696420Y-84744990D01*
X87710313Y-84761023D01*
X87820144Y-84912193D01*
X87820148Y-84912199D01*
X87974806Y-85066857D01*
X88140374Y-85187147D01*
X88151743Y-85195407D01*
X88279132Y-85260315D01*
X88346616Y-85294701D01*
X88346619Y-85294702D01*
X88417349Y-85317683D01*
X88554625Y-85362286D01*
X88654672Y-85378132D01*
X88770639Y-85396500D01*
X88770644Y-85396500D01*
X88989361Y-85396500D01*
X89094082Y-85379912D01*
X89205375Y-85362286D01*
X89413383Y-85294701D01*
X89608257Y-85195407D01*
X89707668Y-85123181D01*
X89785193Y-85066857D01*
X89785195Y-85066854D01*
X89785199Y-85066852D01*
X89939852Y-84912199D01*
X90049683Y-84761028D01*
X90105011Y-84718364D01*
X90174624Y-84712385D01*
X90236420Y-84744990D01*
X90250313Y-84761023D01*
X90360144Y-84912193D01*
X90360148Y-84912199D01*
X90514806Y-85066857D01*
X90680374Y-85187147D01*
X90691743Y-85195407D01*
X90819132Y-85260315D01*
X90886616Y-85294701D01*
X90886619Y-85294702D01*
X90957349Y-85317683D01*
X91094625Y-85362286D01*
X91194672Y-85378132D01*
X91310639Y-85396500D01*
X91310644Y-85396500D01*
X91529361Y-85396500D01*
X91634082Y-85379912D01*
X91745375Y-85362286D01*
X91953383Y-85294701D01*
X92148257Y-85195407D01*
X92247668Y-85123181D01*
X92325193Y-85066857D01*
X92325195Y-85066854D01*
X92325199Y-85066852D01*
X92479852Y-84912199D01*
X92589683Y-84761028D01*
X92645011Y-84718364D01*
X92714624Y-84712385D01*
X92776420Y-84744990D01*
X92790313Y-84761023D01*
X92900144Y-84912193D01*
X92900148Y-84912199D01*
X93054806Y-85066857D01*
X93220374Y-85187147D01*
X93231743Y-85195407D01*
X93359132Y-85260315D01*
X93426616Y-85294701D01*
X93426619Y-85294702D01*
X93497349Y-85317683D01*
X93634625Y-85362286D01*
X93734672Y-85378132D01*
X93850639Y-85396500D01*
X93850644Y-85396500D01*
X94069361Y-85396500D01*
X94285375Y-85362286D01*
X94416510Y-85319678D01*
X94486351Y-85317683D01*
X94542509Y-85349928D01*
X95379589Y-86187008D01*
X95466992Y-86274411D01*
X95466993Y-86274412D01*
X95569760Y-86343079D01*
X95569773Y-86343086D01*
X95683960Y-86390383D01*
X95683965Y-86390385D01*
X95683969Y-86390385D01*
X95683970Y-86390386D01*
X95805194Y-86414500D01*
X95805197Y-86414500D01*
X118174804Y-86414500D01*
X118174805Y-86414499D01*
X118296035Y-86390386D01*
X118376784Y-86356937D01*
X118410233Y-86343083D01*
X118513008Y-86274411D01*
X118600411Y-86187008D01*
X132957384Y-71830033D01*
X133018705Y-71796550D01*
X133064459Y-71795243D01*
X133097648Y-71800500D01*
X133097650Y-71800500D01*
X133702351Y-71800500D01*
X133702352Y-71800500D01*
X133904534Y-71768477D01*
X134099219Y-71705220D01*
X134281610Y-71612287D01*
X134374590Y-71544732D01*
X134447213Y-71491971D01*
X134447215Y-71491968D01*
X134447219Y-71491966D01*
X134591966Y-71347219D01*
X134591968Y-71347215D01*
X134591971Y-71347213D01*
X134644732Y-71274590D01*
X134712287Y-71181610D01*
X134805220Y-70999219D01*
X134868477Y-70804534D01*
X134900500Y-70602352D01*
X134900500Y-70397648D01*
X134868477Y-70195466D01*
X134805220Y-70000781D01*
X134805218Y-70000778D01*
X134805218Y-70000776D01*
X134738199Y-69869246D01*
X134712287Y-69818390D01*
X134704556Y-69807749D01*
X134591971Y-69652786D01*
X134447213Y-69508028D01*
X134281614Y-69387715D01*
X134275006Y-69384348D01*
X134188917Y-69340483D01*
X134138123Y-69292511D01*
X134121328Y-69224690D01*
X134143865Y-69158555D01*
X134188917Y-69119516D01*
X134281610Y-69072287D01*
X134320921Y-69043726D01*
X134447213Y-68951971D01*
X134447215Y-68951968D01*
X134447219Y-68951966D01*
X134591966Y-68807219D01*
X134591968Y-68807215D01*
X134591971Y-68807213D01*
X134712286Y-68641611D01*
X134712287Y-68641610D01*
X134754126Y-68559495D01*
X134802099Y-68508701D01*
X134869919Y-68491905D01*
X134936054Y-68514442D01*
X134952291Y-68528110D01*
X137836181Y-71412000D01*
X137869666Y-71473323D01*
X137872500Y-71499681D01*
X137872500Y-87648038D01*
X137852815Y-87715077D01*
X137804798Y-87758521D01*
X137792182Y-87764949D01*
X137620213Y-87889890D01*
X137469890Y-88040213D01*
X137344951Y-88212179D01*
X137248444Y-88401585D01*
X137182753Y-88603760D01*
X137149500Y-88813713D01*
X137149500Y-89026286D01*
X137182168Y-89232547D01*
X137182754Y-89236243D01*
X137234396Y-89395181D01*
X137248444Y-89438414D01*
X137344951Y-89627820D01*
X137469890Y-89799786D01*
X137620213Y-89950109D01*
X137792182Y-90075050D01*
X137800946Y-90079516D01*
X137851742Y-90127491D01*
X137868536Y-90195312D01*
X137845998Y-90261447D01*
X137800946Y-90300484D01*
X137792182Y-90304949D01*
X137620213Y-90429890D01*
X137469892Y-90580211D01*
X137413097Y-90658385D01*
X137357767Y-90701051D01*
X137312779Y-90709500D01*
X134006080Y-90709500D01*
X133861092Y-90738340D01*
X133861082Y-90738343D01*
X133724511Y-90794912D01*
X133724498Y-90794919D01*
X133601584Y-90877048D01*
X133601580Y-90877051D01*
X131562180Y-92916451D01*
X131500857Y-92949936D01*
X131431165Y-92944952D01*
X131375232Y-92903080D01*
X131350815Y-92837616D01*
X131350499Y-92828770D01*
X131350499Y-92102129D01*
X131350498Y-92102123D01*
X131344091Y-92042516D01*
X131293797Y-91907671D01*
X131293793Y-91907664D01*
X131207547Y-91792455D01*
X131207544Y-91792452D01*
X131092335Y-91706206D01*
X131092328Y-91706202D01*
X130957482Y-91655908D01*
X130957483Y-91655908D01*
X130897883Y-91649501D01*
X130897881Y-91649500D01*
X130897873Y-91649500D01*
X130897865Y-91649500D01*
X129588281Y-91649500D01*
X129521242Y-91629815D01*
X129500600Y-91613181D01*
X129168011Y-91280591D01*
X129168010Y-91280590D01*
X129161546Y-91276271D01*
X129142196Y-91263342D01*
X129065233Y-91211917D01*
X129031784Y-91198062D01*
X129024074Y-91194868D01*
X129024070Y-91194866D01*
X128951035Y-91164614D01*
X128951027Y-91164612D01*
X128829807Y-91140500D01*
X128829803Y-91140500D01*
X98710197Y-91140500D01*
X98710195Y-91140500D01*
X98588970Y-91164613D01*
X98588960Y-91164616D01*
X98474773Y-91211913D01*
X98474761Y-91211920D01*
X98397804Y-91263342D01*
X98397803Y-91263343D01*
X98371989Y-91280590D01*
X92002508Y-97650071D01*
X91941185Y-97683556D01*
X91876509Y-97680321D01*
X91745376Y-97637714D01*
X91529361Y-97603500D01*
X91529356Y-97603500D01*
X91310644Y-97603500D01*
X91310639Y-97603500D01*
X91094623Y-97637714D01*
X90886619Y-97705297D01*
X90886616Y-97705298D01*
X90691739Y-97804595D01*
X90514806Y-97933142D01*
X90360142Y-98087806D01*
X90250318Y-98238969D01*
X90194989Y-98281635D01*
X90125375Y-98287614D01*
X90063580Y-98255009D01*
X90049682Y-98238969D01*
X89939857Y-98087806D01*
X89785193Y-97933142D01*
X89608260Y-97804595D01*
X89608259Y-97804594D01*
X89608257Y-97804593D01*
X89496299Y-97747547D01*
X89413383Y-97705298D01*
X89413380Y-97705297D01*
X89205376Y-97637714D01*
X88989361Y-97603500D01*
X88989356Y-97603500D01*
X88770644Y-97603500D01*
X88770639Y-97603500D01*
X88554623Y-97637714D01*
X88346619Y-97705297D01*
X88346616Y-97705298D01*
X88151739Y-97804595D01*
X87974806Y-97933142D01*
X87820146Y-98087802D01*
X87820142Y-98087807D01*
X87710008Y-98239394D01*
X87654678Y-98282060D01*
X87585065Y-98288039D01*
X87523270Y-98255433D01*
X87509372Y-98239394D01*
X87399475Y-98088133D01*
X87399471Y-98088128D01*
X87244871Y-97933528D01*
X87244866Y-97933524D01*
X87067998Y-97805023D01*
X86873191Y-97705762D01*
X86873188Y-97705761D01*
X86665258Y-97638201D01*
X86590000Y-97626281D01*
X86590000Y-98677748D01*
X86536081Y-98646619D01*
X86406880Y-98612000D01*
X86273120Y-98612000D01*
X86143919Y-98646619D01*
X86090000Y-98677748D01*
X86090000Y-97626281D01*
X86014741Y-97638201D01*
X85806811Y-97705761D01*
X85806808Y-97705762D01*
X85612001Y-97805023D01*
X85435133Y-97933524D01*
X85435128Y-97933528D01*
X85280528Y-98088128D01*
X85280524Y-98088133D01*
X85170627Y-98239394D01*
X85115297Y-98282060D01*
X85045684Y-98288039D01*
X84983889Y-98255433D01*
X84969991Y-98239394D01*
X84859857Y-98087807D01*
X84859853Y-98087802D01*
X84705193Y-97933142D01*
X84528260Y-97804595D01*
X84528259Y-97804594D01*
X84528257Y-97804593D01*
X84416299Y-97747547D01*
X84333383Y-97705298D01*
X84333380Y-97705297D01*
X84125376Y-97637714D01*
X83909361Y-97603500D01*
X83909356Y-97603500D01*
X83690644Y-97603500D01*
X83690639Y-97603500D01*
X83474623Y-97637714D01*
X83266619Y-97705297D01*
X83266616Y-97705298D01*
X83071739Y-97804595D01*
X82894806Y-97933142D01*
X82740142Y-98087806D01*
X82611595Y-98264739D01*
X82512298Y-98459616D01*
X82512297Y-98459619D01*
X82444714Y-98667623D01*
X82410500Y-98883638D01*
X82410500Y-100880361D01*
X82444714Y-101096376D01*
X82512297Y-101304380D01*
X82512298Y-101304383D01*
X82566963Y-101411666D01*
X82599722Y-101475960D01*
X82611595Y-101499260D01*
X82740142Y-101676193D01*
X82894806Y-101830857D01*
X83060374Y-101951147D01*
X83071743Y-101959407D01*
X83199132Y-102024315D01*
X83266616Y-102058701D01*
X83266619Y-102058702D01*
X83370621Y-102092493D01*
X83474625Y-102126286D01*
X83574672Y-102142132D01*
X83690639Y-102160500D01*
X83690644Y-102160500D01*
X83909361Y-102160500D01*
X84039276Y-102139922D01*
X84125375Y-102126286D01*
X84137710Y-102122278D01*
X84333375Y-102058704D01*
X84333377Y-102058702D01*
X84333383Y-102058701D01*
X84426368Y-102011321D01*
X84495035Y-101998425D01*
X84559776Y-102024700D01*
X84570343Y-102034125D01*
X86443635Y-103907416D01*
X86548170Y-104011951D01*
X86548173Y-104011953D01*
X86548174Y-104011954D01*
X86671080Y-104094077D01*
X86671082Y-104094078D01*
X86671091Y-104094084D01*
X86703039Y-104107317D01*
X86703040Y-104107318D01*
X86703041Y-104107318D01*
X86807674Y-104150659D01*
X86923827Y-104173763D01*
X86943054Y-104177587D01*
X86952667Y-104179500D01*
X86952668Y-104179500D01*
X140570262Y-104179500D01*
X140667804Y-104160096D01*
X140715255Y-104150658D01*
X140851837Y-104094084D01*
X140901071Y-104061186D01*
X140974758Y-104011952D01*
X145450259Y-99536448D01*
X145511580Y-99502965D01*
X145581272Y-99507949D01*
X145637205Y-99549821D01*
X145661296Y-99611529D01*
X145665001Y-99647797D01*
X145665001Y-99647799D01*
X145705203Y-99769119D01*
X145720186Y-99814334D01*
X145812288Y-99963656D01*
X145936344Y-100087712D01*
X146085666Y-100179814D01*
X146252203Y-100234999D01*
X146354991Y-100245500D01*
X146991718Y-100245499D01*
X147058757Y-100265183D01*
X147079399Y-100281818D01*
X147697589Y-100900008D01*
X147784992Y-100987411D01*
X147784994Y-100987413D01*
X147784996Y-100987414D01*
X147887756Y-101056076D01*
X147887758Y-101056077D01*
X147887767Y-101056083D01*
X147912772Y-101066440D01*
X147935071Y-101075677D01*
X147977254Y-101093149D01*
X148001966Y-101103386D01*
X148123192Y-101127499D01*
X148123196Y-101127500D01*
X148123197Y-101127500D01*
X150061804Y-101127500D01*
X150061805Y-101127499D01*
X150183035Y-101103386D01*
X150263784Y-101069937D01*
X150297233Y-101056083D01*
X150400008Y-100987411D01*
X150487411Y-100900008D01*
X151150600Y-100236817D01*
X151211923Y-100203333D01*
X151238281Y-100200499D01*
X151900002Y-100200499D01*
X151900008Y-100200499D01*
X152002797Y-100189999D01*
X152169334Y-100134814D01*
X152318656Y-100042712D01*
X152412675Y-99948692D01*
X152473994Y-99915210D01*
X152543686Y-99920194D01*
X152588034Y-99948695D01*
X152681654Y-100042315D01*
X152830875Y-100134356D01*
X152830880Y-100134358D01*
X152997302Y-100189505D01*
X152997309Y-100189506D01*
X153100019Y-100199999D01*
X153249999Y-100199999D01*
X153750000Y-100199999D01*
X153899972Y-100199999D01*
X153899986Y-100199998D01*
X154002697Y-100189505D01*
X154169119Y-100134358D01*
X154169124Y-100134356D01*
X154318345Y-100042315D01*
X154442315Y-99918345D01*
X154534356Y-99769124D01*
X154534358Y-99769119D01*
X154589505Y-99602697D01*
X154589506Y-99602690D01*
X154599999Y-99499986D01*
X154600000Y-99499973D01*
X154600000Y-99250000D01*
X153750000Y-99250000D01*
X153750000Y-100199999D01*
X153249999Y-100199999D01*
X153250000Y-100199998D01*
X153250000Y-98750000D01*
X153750000Y-98750000D01*
X154599999Y-98750000D01*
X154599999Y-98500028D01*
X154599998Y-98500013D01*
X154589505Y-98397302D01*
X154534358Y-98230880D01*
X154534356Y-98230875D01*
X154442315Y-98081654D01*
X154318345Y-97957684D01*
X154169124Y-97865643D01*
X154169119Y-97865641D01*
X154002697Y-97810494D01*
X154002690Y-97810493D01*
X153899986Y-97800000D01*
X153750000Y-97800000D01*
X153750000Y-98750000D01*
X153250000Y-98750000D01*
X153250000Y-97800000D01*
X153100027Y-97800000D01*
X153100012Y-97800001D01*
X152997302Y-97810494D01*
X152830880Y-97865641D01*
X152830875Y-97865643D01*
X152681657Y-97957682D01*
X152588034Y-98051305D01*
X152526710Y-98084789D01*
X152457019Y-98079805D01*
X152412672Y-98051304D01*
X152318657Y-97957289D01*
X152318656Y-97957288D01*
X152169334Y-97865186D01*
X152002797Y-97810001D01*
X152002795Y-97810000D01*
X151900010Y-97799500D01*
X151099998Y-97799500D01*
X151099980Y-97799501D01*
X150997203Y-97810000D01*
X150997200Y-97810001D01*
X150830668Y-97865185D01*
X150830663Y-97865187D01*
X150681342Y-97957289D01*
X150557289Y-98081342D01*
X150465187Y-98230663D01*
X150465185Y-98230668D01*
X150448156Y-98282060D01*
X150410001Y-98397203D01*
X150410001Y-98397204D01*
X150410000Y-98397204D01*
X150399500Y-98499983D01*
X150399500Y-99161718D01*
X150379815Y-99228757D01*
X150363181Y-99249399D01*
X150067180Y-99545399D01*
X150005857Y-99578884D01*
X149936165Y-99573900D01*
X149880232Y-99532028D01*
X149855815Y-99466564D01*
X149855499Y-99457743D01*
X149855499Y-98544992D01*
X149844999Y-98442203D01*
X149789814Y-98275666D01*
X149697712Y-98126344D01*
X149694048Y-98122680D01*
X149660563Y-98061357D01*
X149665547Y-97991665D01*
X149694044Y-97947323D01*
X152746194Y-94895172D01*
X152807515Y-94861689D01*
X152853265Y-94860382D01*
X152948713Y-94875500D01*
X152948715Y-94875500D01*
X153161286Y-94875500D01*
X153161287Y-94875500D01*
X153371243Y-94842246D01*
X153573412Y-94776557D01*
X153762816Y-94680051D01*
X153849138Y-94617335D01*
X153934786Y-94555109D01*
X153934788Y-94555106D01*
X153934792Y-94555104D01*
X154085104Y-94404792D01*
X154085106Y-94404788D01*
X154085109Y-94404786D01*
X154210048Y-94232820D01*
X154210047Y-94232820D01*
X154210051Y-94232816D01*
X154306557Y-94043412D01*
X154372246Y-93841243D01*
X154405500Y-93631287D01*
X154405500Y-93418713D01*
X154372246Y-93208757D01*
X154306557Y-93006588D01*
X154210051Y-92817184D01*
X154210049Y-92817181D01*
X154210048Y-92817179D01*
X154085109Y-92645213D01*
X153934786Y-92494890D01*
X153762820Y-92369951D01*
X153573414Y-92273444D01*
X153573413Y-92273443D01*
X153573412Y-92273443D01*
X153371243Y-92207754D01*
X153371241Y-92207753D01*
X153371240Y-92207753D01*
X153209957Y-92182208D01*
X153161287Y-92174500D01*
X152948713Y-92174500D01*
X152900042Y-92182208D01*
X152738760Y-92207753D01*
X152536585Y-92273444D01*
X152347179Y-92369951D01*
X152175213Y-92494890D01*
X152024890Y-92645213D01*
X151899949Y-92817182D01*
X151895484Y-92825946D01*
X151847509Y-92876742D01*
X151779688Y-92893536D01*
X151713553Y-92870998D01*
X151674516Y-92825946D01*
X151670050Y-92817182D01*
X151545109Y-92645213D01*
X151394786Y-92494890D01*
X151222820Y-92369951D01*
X151033414Y-92273444D01*
X151033413Y-92273443D01*
X151033412Y-92273443D01*
X150831243Y-92207754D01*
X150831241Y-92207753D01*
X150831240Y-92207753D01*
X150669957Y-92182208D01*
X150621287Y-92174500D01*
X150408713Y-92174500D01*
X150408708Y-92174500D01*
X150313271Y-92189616D01*
X150243978Y-92180662D01*
X150206192Y-92154824D01*
X149761819Y-91710451D01*
X149728334Y-91649128D01*
X149725500Y-91622770D01*
X149725500Y-89499499D01*
X149745185Y-89432460D01*
X149797989Y-89386705D01*
X149849500Y-89375499D01*
X149872871Y-89375499D01*
X149872872Y-89375499D01*
X149932483Y-89369091D01*
X150067331Y-89318796D01*
X150182546Y-89232546D01*
X150268796Y-89117331D01*
X150319091Y-88982483D01*
X150325500Y-88922873D01*
X150325499Y-88898979D01*
X150328330Y-88885963D01*
X150338940Y-88866525D01*
X150345179Y-88845275D01*
X150361803Y-88824643D01*
X150361808Y-88824636D01*
X150361811Y-88824634D01*
X150361818Y-88824626D01*
X151032037Y-88154408D01*
X151049075Y-88217993D01*
X151114901Y-88332007D01*
X151207993Y-88425099D01*
X151322007Y-88490925D01*
X151385590Y-88507962D01*
X150753282Y-89140269D01*
X150753282Y-89140270D01*
X150807449Y-89179624D01*
X150996782Y-89276095D01*
X151198870Y-89341757D01*
X151408754Y-89375000D01*
X151621246Y-89375000D01*
X151831127Y-89341757D01*
X151831130Y-89341757D01*
X152033217Y-89276095D01*
X152222554Y-89179622D01*
X152276716Y-89140270D01*
X152276717Y-89140270D01*
X151644408Y-88507962D01*
X151707993Y-88490925D01*
X151822007Y-88425099D01*
X151915099Y-88332007D01*
X151980925Y-88217993D01*
X151997962Y-88154408D01*
X152630270Y-88786717D01*
X152630270Y-88786716D01*
X152669622Y-88732554D01*
X152766095Y-88543217D01*
X152831757Y-88341130D01*
X152831757Y-88341127D01*
X152865000Y-88131246D01*
X152865000Y-87918753D01*
X152831757Y-87708872D01*
X152831757Y-87708869D01*
X152766095Y-87506782D01*
X152669624Y-87317449D01*
X152630270Y-87263282D01*
X152630269Y-87263282D01*
X151997962Y-87895590D01*
X151980925Y-87832007D01*
X151915099Y-87717993D01*
X151822007Y-87624901D01*
X151707993Y-87559075D01*
X151644409Y-87542037D01*
X152276716Y-86909728D01*
X152222550Y-86870375D01*
X152033217Y-86773904D01*
X151831129Y-86708242D01*
X151621246Y-86675000D01*
X151408754Y-86675000D01*
X151198872Y-86708242D01*
X151198869Y-86708242D01*
X150996782Y-86773904D01*
X150807439Y-86870380D01*
X150753282Y-86909727D01*
X150753282Y-86909728D01*
X151385591Y-87542037D01*
X151322007Y-87559075D01*
X151207993Y-87624901D01*
X151114901Y-87717993D01*
X151049075Y-87832007D01*
X151032037Y-87895591D01*
X150361818Y-87225372D01*
X150328333Y-87164049D01*
X150328330Y-87164036D01*
X150325499Y-87151015D01*
X150325499Y-87127128D01*
X150319091Y-87067517D01*
X150290926Y-86992002D01*
X150268798Y-86932673D01*
X150268793Y-86932664D01*
X150182547Y-86817455D01*
X150182544Y-86817452D01*
X150067335Y-86731206D01*
X150067328Y-86731202D01*
X149932482Y-86680908D01*
X149932483Y-86680908D01*
X149872883Y-86674501D01*
X149872881Y-86674500D01*
X149872873Y-86674500D01*
X149872864Y-86674500D01*
X148077129Y-86674500D01*
X148077123Y-86674501D01*
X148017516Y-86680908D01*
X147882671Y-86731202D01*
X147882664Y-86731206D01*
X147767455Y-86817452D01*
X147767452Y-86817455D01*
X147681206Y-86932664D01*
X147681202Y-86932671D01*
X147630908Y-87067517D01*
X147624501Y-87127116D01*
X147624500Y-87127135D01*
X147624500Y-88922870D01*
X147624501Y-88922876D01*
X147630908Y-88982483D01*
X147681202Y-89117328D01*
X147681206Y-89117335D01*
X147767452Y-89232544D01*
X147767455Y-89232547D01*
X147882664Y-89318793D01*
X147882671Y-89318797D01*
X147927618Y-89335561D01*
X148017517Y-89369091D01*
X148077127Y-89375500D01*
X148100497Y-89375499D01*
X148167536Y-89395181D01*
X148213292Y-89447983D01*
X148224500Y-89499499D01*
X148224500Y-92050500D01*
X148204815Y-92117539D01*
X148152011Y-92163294D01*
X148100500Y-92174500D01*
X147077129Y-92174500D01*
X147077123Y-92174501D01*
X147017516Y-92180908D01*
X146882671Y-92231202D01*
X146882664Y-92231206D01*
X146767455Y-92317452D01*
X146767452Y-92317455D01*
X146681206Y-92432664D01*
X146681202Y-92432671D01*
X146630908Y-92567517D01*
X146624501Y-92627116D01*
X146624500Y-92627135D01*
X146624500Y-94422870D01*
X146624501Y-94422876D01*
X146630908Y-94482483D01*
X146681202Y-94617328D01*
X146681206Y-94617335D01*
X146767452Y-94732544D01*
X146767455Y-94732547D01*
X146882664Y-94818793D01*
X146882671Y-94818797D01*
X147017517Y-94869091D01*
X147017516Y-94869091D01*
X147021144Y-94869481D01*
X147077127Y-94875500D01*
X148872872Y-94875499D01*
X148932483Y-94869091D01*
X149067331Y-94818796D01*
X149182546Y-94732546D01*
X149268796Y-94617331D01*
X149317810Y-94485916D01*
X149359681Y-94429984D01*
X149425145Y-94405566D01*
X149493418Y-94420417D01*
X149521673Y-94441569D01*
X149635213Y-94555109D01*
X149807179Y-94680048D01*
X149807181Y-94680049D01*
X149807184Y-94680051D01*
X149996588Y-94776557D01*
X150198757Y-94842246D01*
X150370712Y-94869481D01*
X150433847Y-94899410D01*
X150470778Y-94958722D01*
X150469780Y-95028584D01*
X150438995Y-95079635D01*
X148245180Y-97273450D01*
X148183857Y-97306935D01*
X148114165Y-97301951D01*
X148069816Y-97273448D01*
X148053420Y-97257051D01*
X148053414Y-97257046D01*
X147979729Y-97207812D01*
X147979729Y-97207813D01*
X147930491Y-97174913D01*
X147793917Y-97118343D01*
X147793907Y-97118340D01*
X147648920Y-97089500D01*
X147648918Y-97089500D01*
X146011424Y-97089500D01*
X145986288Y-97094500D01*
X145986287Y-97094500D01*
X145866437Y-97118339D01*
X145866434Y-97118340D01*
X145866430Y-97118341D01*
X145786422Y-97151481D01*
X145786420Y-97151481D01*
X145729847Y-97174915D01*
X145680614Y-97207812D01*
X145647715Y-97229794D01*
X145637552Y-97236584D01*
X145606927Y-97257047D01*
X145606923Y-97257050D01*
X140221793Y-102642181D01*
X140160470Y-102675666D01*
X140134112Y-102678500D01*
X112197230Y-102678500D01*
X112130191Y-102658815D01*
X112084436Y-102606011D01*
X112074492Y-102536853D01*
X112103517Y-102473297D01*
X112109549Y-102466819D01*
X112903526Y-101672842D01*
X117666193Y-96910172D01*
X117727514Y-96876689D01*
X117773265Y-96875382D01*
X117868713Y-96890500D01*
X117868715Y-96890500D01*
X118081286Y-96890500D01*
X118081287Y-96890500D01*
X118291243Y-96857246D01*
X118493412Y-96791557D01*
X118682816Y-96695051D01*
X118704789Y-96679086D01*
X118854786Y-96570109D01*
X118854788Y-96570106D01*
X118854792Y-96570104D01*
X119005104Y-96419792D01*
X119005108Y-96419786D01*
X119061903Y-96341615D01*
X119117233Y-96298949D01*
X119162221Y-96290500D01*
X122787779Y-96290500D01*
X122854818Y-96310185D01*
X122888097Y-96341615D01*
X122944892Y-96419788D01*
X123095213Y-96570109D01*
X123267179Y-96695048D01*
X123267181Y-96695049D01*
X123267184Y-96695051D01*
X123456588Y-96791557D01*
X123658757Y-96857246D01*
X123868713Y-96890500D01*
X123868714Y-96890500D01*
X124081286Y-96890500D01*
X124081287Y-96890500D01*
X124291243Y-96857246D01*
X124493412Y-96791557D01*
X124682816Y-96695051D01*
X124704789Y-96679086D01*
X124854786Y-96570109D01*
X124854788Y-96570106D01*
X124854792Y-96570104D01*
X125005104Y-96419792D01*
X125005108Y-96419786D01*
X125061903Y-96341615D01*
X125117233Y-96298949D01*
X125162221Y-96290500D01*
X128812779Y-96290500D01*
X128879818Y-96310185D01*
X128913097Y-96341615D01*
X128969892Y-96419788D01*
X129120213Y-96570109D01*
X129292179Y-96695048D01*
X129292181Y-96695049D01*
X129292184Y-96695051D01*
X129481588Y-96791557D01*
X129683757Y-96857246D01*
X129893713Y-96890500D01*
X129893714Y-96890500D01*
X130106286Y-96890500D01*
X130106287Y-96890500D01*
X130316243Y-96857246D01*
X130518412Y-96791557D01*
X130707816Y-96695051D01*
X130729789Y-96679086D01*
X130879786Y-96570109D01*
X130879788Y-96570106D01*
X130879792Y-96570104D01*
X131030104Y-96419792D01*
X131030106Y-96419788D01*
X131030109Y-96419786D01*
X131155048Y-96247820D01*
X131155047Y-96247820D01*
X131155051Y-96247816D01*
X131251557Y-96058412D01*
X131317246Y-95856243D01*
X131350500Y-95646287D01*
X131350500Y-95433713D01*
X131335382Y-95338268D01*
X131344336Y-95268979D01*
X131370171Y-95231195D01*
X134354548Y-92246819D01*
X134415871Y-92213334D01*
X134442229Y-92210500D01*
X137312779Y-92210500D01*
X137379818Y-92230185D01*
X137413097Y-92261615D01*
X137469892Y-92339788D01*
X137620213Y-92490109D01*
X137792179Y-92615048D01*
X137792181Y-92615049D01*
X137792184Y-92615051D01*
X137801493Y-92619794D01*
X137852290Y-92667766D01*
X137869087Y-92735587D01*
X137846552Y-92801722D01*
X137801505Y-92840760D01*
X137792446Y-92845376D01*
X137792440Y-92845380D01*
X137738282Y-92884727D01*
X137738282Y-92884728D01*
X138370591Y-93517037D01*
X138307007Y-93534075D01*
X138192993Y-93599901D01*
X138099901Y-93692993D01*
X138034075Y-93807007D01*
X138017037Y-93870591D01*
X137384728Y-93238282D01*
X137384727Y-93238282D01*
X137345380Y-93292439D01*
X137248904Y-93481782D01*
X137183242Y-93683869D01*
X137183242Y-93683872D01*
X137150000Y-93893753D01*
X137150000Y-94106246D01*
X137183242Y-94316127D01*
X137183242Y-94316130D01*
X137248904Y-94518217D01*
X137345375Y-94707550D01*
X137384728Y-94761716D01*
X138017037Y-94129408D01*
X138034075Y-94192993D01*
X138099901Y-94307007D01*
X138192993Y-94400099D01*
X138307007Y-94465925D01*
X138370590Y-94482962D01*
X137700370Y-95153181D01*
X137639047Y-95186666D01*
X137612698Y-95189500D01*
X137602134Y-95189500D01*
X137602123Y-95189501D01*
X137542516Y-95195908D01*
X137407671Y-95246202D01*
X137407664Y-95246206D01*
X137292455Y-95332452D01*
X137292452Y-95332455D01*
X137206206Y-95447664D01*
X137206202Y-95447671D01*
X137155908Y-95582517D01*
X137149501Y-95642116D01*
X137149501Y-95642123D01*
X137149500Y-95642135D01*
X137149500Y-97437870D01*
X137149501Y-97437876D01*
X137155908Y-97497483D01*
X137206202Y-97632328D01*
X137206206Y-97632335D01*
X137292452Y-97747544D01*
X137292455Y-97747547D01*
X137407664Y-97833793D01*
X137407671Y-97833797D01*
X137542517Y-97884091D01*
X137542516Y-97884091D01*
X137549444Y-97884835D01*
X137602127Y-97890500D01*
X139397872Y-97890499D01*
X139457483Y-97884091D01*
X139592331Y-97833796D01*
X139707546Y-97747546D01*
X139793796Y-97632331D01*
X139844091Y-97497483D01*
X139850500Y-97437873D01*
X139850499Y-95642128D01*
X139844091Y-95582517D01*
X139810703Y-95493000D01*
X139793797Y-95447671D01*
X139793793Y-95447664D01*
X139707547Y-95332455D01*
X139707544Y-95332452D01*
X139592335Y-95246206D01*
X139592328Y-95246202D01*
X139457482Y-95195908D01*
X139457483Y-95195908D01*
X139397883Y-95189501D01*
X139397881Y-95189500D01*
X139397873Y-95189500D01*
X139397865Y-95189500D01*
X139387309Y-95189500D01*
X139320270Y-95169815D01*
X139299628Y-95153181D01*
X138629408Y-94482962D01*
X138692993Y-94465925D01*
X138807007Y-94400099D01*
X138900099Y-94307007D01*
X138965925Y-94192993D01*
X138982962Y-94129408D01*
X139615270Y-94761717D01*
X139615270Y-94761716D01*
X139654622Y-94707554D01*
X139751095Y-94518217D01*
X139816757Y-94316130D01*
X139816757Y-94316127D01*
X139850000Y-94106246D01*
X139850000Y-93893753D01*
X139816757Y-93683872D01*
X139816757Y-93683869D01*
X139751095Y-93481782D01*
X139654624Y-93292449D01*
X139615270Y-93238282D01*
X139615269Y-93238282D01*
X138982962Y-93870590D01*
X138965925Y-93807007D01*
X138900099Y-93692993D01*
X138807007Y-93599901D01*
X138692993Y-93534075D01*
X138629409Y-93517037D01*
X139261716Y-92884728D01*
X139207547Y-92845373D01*
X139207547Y-92845372D01*
X139198500Y-92840763D01*
X139147706Y-92792788D01*
X139130912Y-92724966D01*
X139153451Y-92658832D01*
X139198508Y-92619793D01*
X139207816Y-92615051D01*
X139287007Y-92557515D01*
X139379786Y-92490109D01*
X139379788Y-92490106D01*
X139379792Y-92490104D01*
X139530104Y-92339792D01*
X139530106Y-92339788D01*
X139530109Y-92339786D01*
X139655048Y-92167820D01*
X139655047Y-92167820D01*
X139655051Y-92167816D01*
X139751557Y-91978412D01*
X139817246Y-91776243D01*
X139850500Y-91566287D01*
X139850500Y-91353713D01*
X139835382Y-91258267D01*
X139844336Y-91188978D01*
X139870171Y-91151194D01*
X140437951Y-90583416D01*
X140520084Y-90460495D01*
X140576658Y-90323913D01*
X140605500Y-90178918D01*
X140605500Y-90031083D01*
X140605500Y-70701082D01*
X140599763Y-70672241D01*
X140576659Y-70556088D01*
X140522408Y-70425117D01*
X140520764Y-70420522D01*
X140437954Y-70296588D01*
X140437953Y-70296587D01*
X140437951Y-70296584D01*
X140333416Y-70192049D01*
X134978416Y-64837048D01*
X134978415Y-64837047D01*
X134978413Y-64837045D01*
X134904173Y-64787442D01*
X134904174Y-64787442D01*
X134896355Y-64782218D01*
X134855495Y-64754916D01*
X134718913Y-64698342D01*
X134710005Y-64696569D01*
X134696386Y-64690196D01*
X134680837Y-64676466D01*
X134662495Y-64666780D01*
X134648630Y-64650772D01*
X134591969Y-64572784D01*
X134447213Y-64428028D01*
X134281611Y-64307713D01*
X134188369Y-64260203D01*
X134137574Y-64212229D01*
X134120779Y-64144407D01*
X134143317Y-64078273D01*
X134188371Y-64039234D01*
X134281347Y-63991861D01*
X134446894Y-63871582D01*
X134446895Y-63871582D01*
X134591582Y-63726895D01*
X134591582Y-63726894D01*
X134711859Y-63561349D01*
X134804755Y-63379029D01*
X134867990Y-63184413D01*
X134876609Y-63130000D01*
X133833012Y-63130000D01*
X133865925Y-63072993D01*
X133900000Y-62945826D01*
X133900000Y-62814174D01*
X133865925Y-62687007D01*
X133833012Y-62630000D01*
X134876609Y-62630000D01*
X134867990Y-62575586D01*
X134804755Y-62380970D01*
X134711859Y-62198650D01*
X134591582Y-62033105D01*
X134591582Y-62033104D01*
X134446895Y-61888417D01*
X134281349Y-61768140D01*
X134099031Y-61675244D01*
X133904417Y-61612009D01*
X133702317Y-61580000D01*
X133650000Y-61580000D01*
X133650000Y-62446988D01*
X133592993Y-62414075D01*
X133465826Y-62380000D01*
X133334174Y-62380000D01*
X133207007Y-62414075D01*
X133150000Y-62446988D01*
X133150000Y-61580000D01*
X133097683Y-61580000D01*
X132895582Y-61612009D01*
X132700968Y-61675244D01*
X132518650Y-61768140D01*
X132353105Y-61888417D01*
X132353104Y-61888417D01*
X132208417Y-62033104D01*
X132208417Y-62033105D01*
X132088140Y-62198650D01*
X131995244Y-62380970D01*
X131932009Y-62575586D01*
X131923391Y-62630000D01*
X132966988Y-62630000D01*
X132934075Y-62687007D01*
X132900000Y-62814174D01*
X132900000Y-62945826D01*
X132934075Y-63072993D01*
X132966988Y-63130000D01*
X131923391Y-63130000D01*
X131932009Y-63184413D01*
X131995244Y-63379029D01*
X132088140Y-63561349D01*
X132208417Y-63726894D01*
X132208417Y-63726895D01*
X132353104Y-63871582D01*
X132518652Y-63991861D01*
X132611628Y-64039234D01*
X132662425Y-64087208D01*
X132679220Y-64155029D01*
X132656683Y-64221164D01*
X132611630Y-64260203D01*
X132518388Y-64307713D01*
X132352786Y-64428028D01*
X132208028Y-64572786D01*
X132087715Y-64738386D01*
X131994781Y-64920776D01*
X131931522Y-65115465D01*
X131899500Y-65317648D01*
X131899500Y-65522351D01*
X131931522Y-65724534D01*
X131994782Y-65919225D01*
X132020758Y-65970204D01*
X132033655Y-66038874D01*
X132007379Y-66103614D01*
X131950273Y-66143872D01*
X131910274Y-66150500D01*
X131741882Y-66150500D01*
X131620658Y-66174613D01*
X131620648Y-66174616D01*
X131506462Y-66221913D01*
X131506444Y-66221923D01*
X131403680Y-66290587D01*
X131403673Y-66290593D01*
X118445747Y-79248520D01*
X118384424Y-79282005D01*
X118314732Y-79277021D01*
X118285184Y-79261159D01*
X118207816Y-79204949D01*
X118018412Y-79108443D01*
X117816243Y-79042754D01*
X117816241Y-79042753D01*
X117816240Y-79042753D01*
X117654957Y-79017208D01*
X117606287Y-79009500D01*
X117393713Y-79009500D01*
X117345042Y-79017208D01*
X117183760Y-79042753D01*
X116981585Y-79108444D01*
X116792179Y-79204951D01*
X116620213Y-79329890D01*
X116469890Y-79480213D01*
X116344949Y-79652181D01*
X116338525Y-79664792D01*
X116290552Y-79715589D01*
X116228039Y-79732500D01*
X111560507Y-79732500D01*
X111439282Y-79756613D01*
X111439272Y-79756616D01*
X111325085Y-79803913D01*
X111325069Y-79803922D01*
X111282412Y-79832424D01*
X111215734Y-79853301D01*
X111148354Y-79834815D01*
X111103038Y-79785616D01*
X111065944Y-79712815D01*
X111035051Y-79652184D01*
X111025186Y-79638606D01*
X110910109Y-79480213D01*
X110759786Y-79329890D01*
X110587820Y-79204951D01*
X110398414Y-79108444D01*
X110398413Y-79108443D01*
X110398412Y-79108443D01*
X110196243Y-79042754D01*
X110196241Y-79042753D01*
X110196240Y-79042753D01*
X110034957Y-79017208D01*
X109986287Y-79009500D01*
X109773713Y-79009500D01*
X109725042Y-79017208D01*
X109563760Y-79042753D01*
X109361585Y-79108444D01*
X109172179Y-79204951D01*
X109000213Y-79329890D01*
X108849890Y-79480213D01*
X108724949Y-79652181D01*
X108718525Y-79664792D01*
X108670552Y-79715589D01*
X108608039Y-79732500D01*
X105631752Y-79732500D01*
X105564713Y-79712815D01*
X105518958Y-79660011D01*
X105509014Y-79590853D01*
X105538039Y-79527297D01*
X105569749Y-79501114D01*
X105692450Y-79430273D01*
X105879699Y-79286592D01*
X106046592Y-79119699D01*
X106190273Y-78932450D01*
X106308284Y-78728049D01*
X106398606Y-78509993D01*
X106459693Y-78282014D01*
X106490500Y-78048011D01*
X106490500Y-77811989D01*
X106459693Y-77577986D01*
X106398606Y-77350007D01*
X106308284Y-77131951D01*
X106308282Y-77131948D01*
X106308280Y-77131943D01*
X106266118Y-77058918D01*
X106190273Y-76927550D01*
X106046592Y-76740301D01*
X106046587Y-76740295D01*
X105879704Y-76573412D01*
X105879697Y-76573406D01*
X105692454Y-76429730D01*
X105692453Y-76429729D01*
X105692450Y-76429727D01*
X105610957Y-76382677D01*
X105488056Y-76311719D01*
X105488045Y-76311714D01*
X105269993Y-76221394D01*
X105042010Y-76160306D01*
X104808020Y-76129501D01*
X104808017Y-76129500D01*
X104808011Y-76129500D01*
X104571989Y-76129500D01*
X104571983Y-76129500D01*
X104571979Y-76129501D01*
X104337989Y-76160306D01*
X104110006Y-76221394D01*
X103891954Y-76311714D01*
X103891943Y-76311719D01*
X103687545Y-76429730D01*
X103500302Y-76573406D01*
X103500295Y-76573412D01*
X103333412Y-76740295D01*
X103333406Y-76740302D01*
X103189730Y-76927545D01*
X103071719Y-77131943D01*
X103071714Y-77131954D01*
X102981394Y-77350006D01*
X102920306Y-77577989D01*
X102889501Y-77811979D01*
X102889500Y-77811995D01*
X102889500Y-78048004D01*
X102889501Y-78048020D01*
X102920306Y-78282010D01*
X102981394Y-78509993D01*
X103071714Y-78728045D01*
X103071719Y-78728056D01*
X103142677Y-78850957D01*
X103189727Y-78932450D01*
X103189729Y-78932453D01*
X103189730Y-78932454D01*
X103333406Y-79119697D01*
X103333412Y-79119704D01*
X103500295Y-79286587D01*
X103500301Y-79286592D01*
X103687550Y-79430273D01*
X103810249Y-79501113D01*
X103858464Y-79551680D01*
X103871686Y-79620288D01*
X103845718Y-79685152D01*
X103788804Y-79725680D01*
X103748248Y-79732500D01*
X91429730Y-79732500D01*
X91308505Y-79756613D01*
X91308495Y-79756616D01*
X91194308Y-79803913D01*
X91194295Y-79803920D01*
X91091527Y-79872588D01*
X91091523Y-79872591D01*
X89865743Y-81098371D01*
X89804420Y-81131856D01*
X89734728Y-81126872D01*
X89705177Y-81111008D01*
X89608260Y-81040595D01*
X89608259Y-81040594D01*
X89608257Y-81040593D01*
X89462287Y-80966217D01*
X89411491Y-80918242D01*
X89394696Y-80850421D01*
X89417234Y-80784286D01*
X89430895Y-80768057D01*
X101406575Y-68792378D01*
X121239500Y-68792378D01*
X121239500Y-69067621D01*
X121270315Y-69341108D01*
X121270317Y-69341124D01*
X121331561Y-69609453D01*
X121331565Y-69609465D01*
X121422467Y-69869246D01*
X121541884Y-70117218D01*
X121541886Y-70117221D01*
X121688319Y-70350268D01*
X121816343Y-70510804D01*
X121852460Y-70556095D01*
X121859925Y-70565455D01*
X122054545Y-70760075D01*
X122269732Y-70931681D01*
X122502779Y-71078114D01*
X122750757Y-71197534D01*
X122945865Y-71265805D01*
X123010534Y-71288434D01*
X123010546Y-71288438D01*
X123278879Y-71349683D01*
X123552378Y-71380499D01*
X123552379Y-71380500D01*
X123552383Y-71380500D01*
X123827621Y-71380500D01*
X123827621Y-71380499D01*
X124101121Y-71349683D01*
X124369454Y-71288438D01*
X124629243Y-71197534D01*
X124877221Y-71078114D01*
X125110268Y-70931681D01*
X125325455Y-70760075D01*
X125520075Y-70565455D01*
X125691681Y-70350268D01*
X125838114Y-70117221D01*
X125957534Y-69869243D01*
X126048438Y-69609454D01*
X126109683Y-69341121D01*
X126140500Y-69067617D01*
X126140500Y-68792383D01*
X126109683Y-68518879D01*
X126048438Y-68250546D01*
X125957534Y-67990757D01*
X125838114Y-67742779D01*
X125691681Y-67509732D01*
X125520075Y-67294545D01*
X125325455Y-67099925D01*
X125110268Y-66928319D01*
X124877221Y-66781886D01*
X124877218Y-66781884D01*
X124629246Y-66662467D01*
X124369465Y-66571565D01*
X124369453Y-66571561D01*
X124101124Y-66510317D01*
X124101108Y-66510315D01*
X123827621Y-66479500D01*
X123827617Y-66479500D01*
X123552383Y-66479500D01*
X123552379Y-66479500D01*
X123278891Y-66510315D01*
X123278875Y-66510317D01*
X123010546Y-66571561D01*
X123010534Y-66571565D01*
X122750753Y-66662467D01*
X122502781Y-66781884D01*
X122269733Y-66928318D01*
X122054545Y-67099924D01*
X121859924Y-67294545D01*
X121688318Y-67509733D01*
X121541884Y-67742781D01*
X121422467Y-67990753D01*
X121331565Y-68250534D01*
X121331561Y-68250546D01*
X121270317Y-68518875D01*
X121270315Y-68518891D01*
X121239500Y-68792378D01*
X101406575Y-68792378D01*
X112035135Y-58163819D01*
X112096458Y-58130334D01*
X112122816Y-58127500D01*
X116228039Y-58127500D01*
X116295078Y-58147185D01*
X116338525Y-58195208D01*
X116344949Y-58207818D01*
X116469890Y-58379786D01*
X116620213Y-58530109D01*
X116792179Y-58655048D01*
X116792181Y-58655049D01*
X116792184Y-58655051D01*
X116981588Y-58751557D01*
X117183757Y-58817246D01*
X117393713Y-58850500D01*
X117393714Y-58850500D01*
X117606286Y-58850500D01*
X117606287Y-58850500D01*
X117816243Y-58817246D01*
X118018412Y-58751557D01*
X118207816Y-58655051D01*
X118229789Y-58639086D01*
X118379786Y-58530109D01*
X118379788Y-58530106D01*
X118379792Y-58530104D01*
X118530104Y-58379792D01*
X118530106Y-58379788D01*
X118530109Y-58379786D01*
X118655048Y-58207820D01*
X118655047Y-58207820D01*
X118655051Y-58207816D01*
X118751557Y-58018412D01*
X118817246Y-57816243D01*
X118850500Y-57606287D01*
X118850500Y-57393713D01*
X118817246Y-57183757D01*
X118751557Y-56981588D01*
X118655051Y-56792184D01*
X118655049Y-56792181D01*
X118655048Y-56792179D01*
X118530109Y-56620213D01*
X118379786Y-56469890D01*
X118207820Y-56344951D01*
X118018414Y-56248444D01*
X118018413Y-56248443D01*
X118018412Y-56248443D01*
X117816243Y-56182754D01*
X117816241Y-56182753D01*
X117816240Y-56182753D01*
X117654957Y-56157208D01*
X117606287Y-56149500D01*
X117393713Y-56149500D01*
X117345042Y-56157208D01*
X117183760Y-56182753D01*
X116981585Y-56248444D01*
X116792179Y-56344951D01*
X116620213Y-56469890D01*
X116469890Y-56620213D01*
X116344949Y-56792181D01*
X116338525Y-56804792D01*
X116290552Y-56855589D01*
X116228039Y-56872500D01*
X114553940Y-56872500D01*
X114486901Y-56852815D01*
X114441146Y-56800011D01*
X114431202Y-56730853D01*
X114460227Y-56667297D01*
X114481051Y-56648184D01*
X114634937Y-56536379D01*
X114796379Y-56374937D01*
X114930579Y-56190228D01*
X115034231Y-55986799D01*
X115104784Y-55769660D01*
X115115241Y-55703638D01*
X115140500Y-55544162D01*
X115140500Y-55315837D01*
X115104784Y-55090339D01*
X115034229Y-54873196D01*
X114930578Y-54669771D01*
X114796379Y-54485063D01*
X114634937Y-54323621D01*
X114450228Y-54189421D01*
X114246803Y-54085770D01*
X114029660Y-54015215D01*
X113804162Y-53979500D01*
X113804157Y-53979500D01*
X113575843Y-53979500D01*
X113575838Y-53979500D01*
X113350339Y-54015215D01*
X113133196Y-54085770D01*
X112929771Y-54189421D01*
X112745061Y-54323622D01*
X112583622Y-54485061D01*
X112449421Y-54669771D01*
X112345770Y-54873196D01*
X112275215Y-55090339D01*
X112239500Y-55315837D01*
X112239500Y-55544162D01*
X112275215Y-55769660D01*
X112345770Y-55986803D01*
X112428669Y-56149500D01*
X112449421Y-56190228D01*
X112583621Y-56374937D01*
X112745063Y-56536379D01*
X112898946Y-56648182D01*
X112941611Y-56703512D01*
X112947590Y-56773126D01*
X112914984Y-56834921D01*
X112854145Y-56869278D01*
X112826060Y-56872500D01*
X111749730Y-56872500D01*
X111628505Y-56896613D01*
X111628495Y-56896616D01*
X111514308Y-56943913D01*
X111514295Y-56943920D01*
X111411527Y-57012588D01*
X111350900Y-57073215D01*
X111289576Y-57106699D01*
X111219885Y-57101714D01*
X111163951Y-57059843D01*
X111145291Y-57023856D01*
X111131557Y-56981588D01*
X111035051Y-56792184D01*
X111035049Y-56792181D01*
X111035048Y-56792179D01*
X110910109Y-56620213D01*
X110759786Y-56469890D01*
X110587820Y-56344951D01*
X110398414Y-56248444D01*
X110398413Y-56248443D01*
X110398412Y-56248443D01*
X110196243Y-56182754D01*
X110196241Y-56182753D01*
X110196240Y-56182753D01*
X110034957Y-56157208D01*
X109986287Y-56149500D01*
X109773713Y-56149500D01*
X109725042Y-56157208D01*
X109563760Y-56182753D01*
X109361585Y-56248444D01*
X109172179Y-56344951D01*
X109000213Y-56469890D01*
X108849890Y-56620213D01*
X108724948Y-56792183D01*
X108718415Y-56805005D01*
X108670438Y-56855799D01*
X108620095Y-56872107D01*
X108616117Y-56872498D01*
X108494889Y-56896613D01*
X108494879Y-56896616D01*
X108380693Y-56943913D01*
X108380675Y-56943923D01*
X108277911Y-57012587D01*
X108277904Y-57012593D01*
X84399052Y-80891446D01*
X84337729Y-80924931D01*
X84273054Y-80921696D01*
X84125377Y-80873714D01*
X84125378Y-80873714D01*
X83909361Y-80839500D01*
X83909356Y-80839500D01*
X83690644Y-80839500D01*
X83690639Y-80839500D01*
X83474623Y-80873714D01*
X83266619Y-80941297D01*
X83266616Y-80941298D01*
X83071739Y-81040595D01*
X82894806Y-81169142D01*
X82740142Y-81323806D01*
X82611595Y-81500739D01*
X82512298Y-81695616D01*
X82512297Y-81695619D01*
X82444714Y-81903623D01*
X82410500Y-82119638D01*
X80500500Y-82119638D01*
X80500500Y-52506961D01*
X80501280Y-52493077D01*
X80501280Y-52493076D01*
X80511460Y-52402729D01*
X80517635Y-52375670D01*
X80545353Y-52296456D01*
X80557396Y-52271450D01*
X80602046Y-52200389D01*
X80619351Y-52178690D01*
X80678690Y-52119351D01*
X80700389Y-52102046D01*
X80771450Y-52057396D01*
X80796456Y-52045353D01*
X80875670Y-52017635D01*
X80902733Y-52011459D01*
X80965419Y-52004396D01*
X80993079Y-52001280D01*
X81006962Y-52000500D01*
X81065892Y-52000500D01*
X161934108Y-52000500D01*
X161993038Y-52000500D01*
X162006922Y-52001280D01*
G37*
%TD.AperFunction*%
%TD*%
M02*
